<svg width="20" height="25" viewBox="0 0 20 25" fill="none" xmlns="http://www.w3.org/2000/svg">
<path d="M18.0588 2.70145V7.31888C18.0558 10.1634 17.3721 12.9653 16.0656 15.4877C14.7749 17.9753 12.912 20.1163 10.6322 21.7322L10.0188 22.1698V1.62424C12.7281 1.70883 15.4219 2.06975 18.0588 2.70145Z" fill="#232343"/>
<path d="M7.04149 7.3385V5.96954L5.20991 4.22188V2.25821H4.98132V4.22188L3.14695 5.96954V10.197H3.62645V9.5855H4.97017V10.197H5.44967V9.5855H5.88177C5.84842 9.32763 5.76506 9.07887 5.63644 8.85333V7.3413L7.04149 7.3385ZM5.43015 7.02431H4.78617V6.33142C4.78346 6.31 4.78346 6.28832 4.78617 6.2669C4.79711 6.20481 4.82737 6.14784 4.87259 6.10419L4.90604 6.07614C4.91222 6.06902 4.91983 6.06328 4.92835 6.05931C4.98018 6.02664 5.04003 6.00915 5.10119 6.00882C5.15815 6.00866 5.21406 6.02418 5.26288 6.0537L5.28519 6.06773L5.327 6.10419C5.37195 6.14845 5.40298 6.20503 5.41621 6.2669C5.41759 6.28838 5.41759 6.30993 5.41621 6.33142L5.43015 7.02431Z" fill="#232343"/>
<path d="M9.15742 7.71162H9.15463V8.239H9.15742V7.71162Z" fill="#232343"/>
<path d="M6.4282 9.953V11.1761C6.05185 11.7932 6.12712 12.7218 6.12433 13.4203H4.9228V14.1188H4.27046V13.4203H3.0494C2.6321 12.3011 2.33764 11.1394 2.17125 9.95581H2.78178V10.5702H3.99725V9.953H4.59384V10.5674H5.80931V9.953H6.4282Z" fill="#232343"/>
<path d="M8.0702 13.7878V15.1904C7.83915 15.6212 7.71933 16.1035 7.72172 16.593V20.3997C6.22728 19.0246 4.98042 17.3998 4.03627 15.5971C3.73656 15.0272 3.46852 14.4409 3.23338 13.8411V13.799H3.92754V14.4975H5.32143V13.7878H5.98772V14.4863H7.38161V13.7878H8.0702Z" fill="#232343"/>
<path d="M19.3245 1.35213C16.2765 0.53633 13.1439 0.0825294 9.99099 0C6.729 0.075261 3.48933 0.562512 0.348029 1.45031C0.406572 4.38459 0.0943399 9.10581 0.905586 11.9139C1.11746 12.6488 1.31261 13.3782 1.58024 14.0963C2.39231 16.2653 3.58594 18.2694 5.104 20.0126C6.19882 21.2421 7.43078 22.3406 8.77552 23.2863C9.18532 23.5837 9.59791 23.8726 10.0105 24.1643C15.9596 20.3913 19.6395 14.475 19.6674 7.3329V1.45031L19.3245 1.35213ZM18.7251 7.31887C18.7753 13.6727 15.3268 19.6423 10.0049 23.0086C4.70813 19.6423 1.26522 13.6671 1.28752 7.31887V2.16845C6.99876 0.624201 13.0139 0.624201 18.7251 2.16845V7.31887Z" fill="#232343"/>
<path d="M7.27568 2.63692C7.16696 2.72388 6.91048 2.79962 6.91048 2.95391C6.98849 3.13097 7.05553 3.31272 7.11121 3.49813C7.11664 3.5095 7.11947 3.52197 7.11947 3.5346C7.11947 3.54722 7.11664 3.55968 7.11121 3.57106C7.10754 3.57524 7.10304 3.57859 7.09799 3.58088C7.09295 3.58318 7.08747 3.58436 7.08193 3.58436C7.07639 3.58436 7.07092 3.58318 7.06588 3.58088C7.06083 3.57859 7.05633 3.57524 7.05266 3.57106C6.58153 3.24004 5.971 3.59351 5.48593 3.34384V2.26943C5.96821 2.51629 6.8157 2.16564 7.25338 2.49105C7.27569 2.51068 7.38162 2.58362 7.27568 2.63692Z" fill="#232343"/>
<path d="M7.58235 8.2362V8.239H6.53135V7.71162H6.53414V8.2362H7.58235Z" fill="#232343"/>
<path d="M9.15742 8.239L8.10644 8.239V8.2418H9.15743L9.15742 8.239Z" fill="#232343"/>
<path d="M9.68156 7.70879V8.76637C9.50897 9.08977 9.41893 9.45125 9.41951 9.81834V21.7518C8.95395 21.418 8.52463 21.0814 8.08973 20.7111V16.5762C8.09371 16.1216 8.21268 15.6756 8.43542 15.2801V13.4203H7.00807V14.116H6.49233C6.52857 13.3557 6.339 11.9307 6.7962 11.2686V9.5855H6.26652C6.23942 9.29844 6.15502 9.01984 6.0184 8.76637V7.70879H6.54251V8.23898H7.59629V7.70879H8.1204V8.23898H9.1714V7.70879H9.68156Z" fill="#232343"/>
</svg>
