<svg xmlns="http://www.w3.org/2000/svg" width="79" height="32" class="customer-logo__asset">
  <path d="M4.4 4.622C4.373 2.607 2 3.159 2 2.552c0-.249.22-.302.442-.302 1.02 0 2.014.11 3.035.11.855 0 1.71-.11 2.565-.11.47 0 .525.165.525.275 0 .552-1.987.028-1.987 2.098v5.96c0 .385 0 .496.414.496h10.098c.277 0 .221-.69.221-.8V4.621c0-1.904-2.069-1.436-2.069-2.07 0-.165.055-.303.47-.303.91 0 2.345.11 2.869.11 1.02 0 1.434-.11 1.986-.11.717 0 .773.275.773.441 0 .496-1.849.028-1.849 1.932v14.623c0 2.015 2.511 1.518 2.511 2.208 0 .082-.11.33-.304.33-.744 0-1.6-.11-2.593-.11-1.766 0-2.538.11-3.063.11-.248 0-.662.083-.662-.358 0-.662 1.931-.276 1.931-2.014v-6.62c0-.442 11-.69-.22-.69H6.91c-.33 0-.33.165-.33.47v6.869c0 1.876 2.62 1.27 2.62 2.125 0 .138-.192.22-.44.22-.36 0-2.374-.11-3.836-.11-1.96 0-2.263.11-2.373.11-.22 0-.304-.137-.304-.413 0-.8 2.152.11 2.152-2.622V4.622M33.37 2c5.188 0 6.623 2.125 7.423 2.125.221 0 .386-.276.662-.276.304 0 .304.441.386 2.235.056 1.462.304 2.373-.165 2.373-.332 0-.525-.718-.635-.911-1.71-2.952-3.67-4.746-7.228-4.746-5.381 0-7.975 3.587-7.975 8.72 0 4.8 2.76 9.601 8.057 9.601 4.332 0 7.036-2.759 7.45-4.029.055-.193.22-.358.386-.358.138 0 .275.165.249.304l-.636 2.76c-.026.11-1.986 2.178-8.194 2.178-5.656 0-9.712-3.89-9.712-9.601C23.438 6.663 27.548 2 33.37 2m10.264 14.9c-.11-.552.027-.856.303-.856.387 0 .387.332.524.911.332 1.27 1.987 4.138 5.795 4.138 2.621 0 5.187-1.462 5.187-4.359 0-5.325-11.202-2.345-11.202-9.547C44.241 3.683 47.193 2 50.366 2c3.338 0 4.25.993 4.635.993.249 0 .304-.303.58-.303.165 0 .303.083.331.386l.414 3.753c.027.22-.028.414-.304.414-.303 0-.496-.58-.579-.828-.828-2.373-2.842-3.587-5.27-3.587-2.18 0-4.497 1.048-4.497 3.587 0 5.187 11.202 2.152 11.202 9.768 0 2.317-1.628 5.793-7.891 5.793-2.042 0-4.553-1.02-4.663-1.517l-.69-3.56M68.631 2c5.188 0 6.622 2.125 7.422 2.125.221 0 .387-.276.662-.276.304 0 .304.441.387 2.235.055 1.462.303 2.373-.166 2.373-.33 0-.524-.718-.634-.911-1.71-2.952-3.67-4.746-7.23-4.746-5.379 0-7.972 3.587-7.972 8.72 0 4.8 2.759 9.601 8.057 9.601 4.331 0 7.035-2.759 7.45-4.029.054-.193.22-.358.385-.358.139 0 .277.165.249.304l-.635 2.76c-.027.11-1.986 2.178-8.194 2.178-5.657 0-9.713-3.89-9.713-9.601C58.698 6.663 62.81 2 68.631 2M2.916 25.446c-.005-.403-.48-.292-.48-.414 0-.05.044-.06.088-.06.205 0 .403.022.608.022.171 0 .342-.022.513-.022.094 0 .105.033.105.055 0 .11-.397.005-.397.42v1.191c0 .078 0 .1.082.1h2.02c.056 0 .045-.138.045-.16v-1.132c0-.38-.414-.287-.414-.414 0-.033.01-.06.093-.06.183 0 .47.022.574.022.205 0 .288-.022.398-.022.144 0 .154.055.154.088 0 .099-.37.006-.37.386v2.926c0 .403.503.304.503.441 0 .017-.022.067-.06.067-.15 0-.32-.023-.52-.023-.353 0-.507.023-.612.023-.05 0-.133.016-.133-.072 0-.132.387-.055.387-.403V27.08c0-.088.022-.138-.045-.138H3.42c-.066 0-.066.033-.066.094v1.375c0 .375.524.253.524.424 0 .028-.039.045-.088.045-.072 0-.475-.023-.768-.023-.392 0-.452.023-.474.023-.045 0-.06-.028-.06-.083 0-.16.429.022.429-.525v-2.826m5.341 1.866c.077 0 .11-.028.11-.11 0-.31-.309-.585-.612-.585-.343 0-.585.391-.585.695h1.087zm-1.087.149c0 .91.552 1.181.888 1.181.475 0 .657-.287.779-.287.022 0 .022.023.022.039 0 .127-.48.524-.977.524-.828 0-1.115-.767-1.115-1.131 0-.707.391-1.298 1.082-1.298.679 0 .977.658.977.879 0 .099-.061.093-.188.093H7.171zm3.476.209c-.353.078-1.026.167-1.026.652 0 .315.16.436.452.436.199 0 .574-.154.574-.447v-.641zm0-.557c0-.287-.226-.48-.568-.48-.265 0-.48.028-.48.331 0 .083.033.166.033.227 0 .06-.017.104-.122.104-.093 0-.26-.082-.26-.182.006-.254.315-.64.928-.624.343 0 .873.1.873.569v1.143c0 .187-.05.513.237.513.022 0 .072-.011.093-.011.028 0 .072 0 .072.039 0 .115-.242.138-.32.138-.215 0-.359-.1-.43-.282-.232.2-.536.32-.845.32-.359 0-.596-.132-.596-.524 0-.293.094-.64 1.385-.856v-.425zm1.815 1.32c0 .38.459.22.459.37 0 .066-.045.077-.127.077-.078 0-.248-.023-.508-.023-.27 0-.375.023-.43.023-.045 0-.067-.023-.067-.072 0-.083.27-.066.27-.304v-3.119c0-.33-.375-.187-.375-.303 0-.03.02-.055.05-.06.425-.1.535-.276.662-.276.033 0 .066.033.066.087v3.6m1.033-1.645c-.26 0-.299 0-.299-.04 0-.044.138-.137.42-.446.11-.133.165-.254.21-.254.077 0 .071.116.071.513h.607c.138 0 .2-.094.216-.094.028 0 .038.028.038.044 0 .023-.016.05-.033.078l-.11.2h-.718v1.605c.011.226.166.33.387.33.292 0 .375-.126.469-.126.022 0 .044.006.044.05 0 .083-.298.27-.685.27-.253 0-.617-.071-.617-.64v-1.49m2.223.093c.21-.199.48-.392.795-.392.706 0 .922.613.922 1.088v.922c0 .287.441.171.441.309 0 .06-.05.072-.11.072-.1 0-.254-.023-.464-.023-.215 0-.392.023-.453.023-.054 0-.087-.017-.087-.061 0-.083.27-.083.27-.281v-1.01c0-.685-.475-.812-.668-.812-.248 0-.646.215-.646.497v1.165c0 .474.486.32.486.424 0 .067-.028.078-.094.078-.116 0-.392-.023-.563-.023-.17 0-.414.023-.502.023-.039 0-.055-.028-.055-.056 0-.11.325-.05.325-.32v-3.119c0-.33-.425-.187-.425-.303 0-.034.016-.055.044-.06.403-.078.591-.276.718-.276.033 0 .066.033.066.087v2.048m5.712-1.959c1.038 0 1.325.425 1.485.425.044 0 .077-.055.132-.055.06 0 .06.088.078.446.01.294.06.475-.033.475-.067 0-.106-.143-.127-.181-.342-.591-.735-.95-1.447-.95-1.076 0-1.595.717-1.595 1.744 0 .96.552 1.921 1.612 1.921.866 0 1.407-.552 1.49-.806.011-.038.044-.072.077-.072.028 0 .056.034.05.061l-.127.552c-.005.022-.397.436-1.639.436-1.132 0-1.943-.778-1.943-1.92 0-1.143.822-2.076 1.987-2.076m3.47 2.748c-.353.078-1.026.167-1.026.652 0 .315.16.436.453.436.198 0 .573-.154.573-.447v-.641zm0-.557c0-.287-.226-.48-.568-.48-.265 0-.48.028-.48.331 0 .083.033.166.033.227 0 .06-.017.104-.121.104-.094 0-.26-.082-.26-.182.006-.254.315-.64.927-.624.342 0 .872.1.872.569v1.143c0 .187-.05.513.238.513.022 0 .072-.011.094-.011.028 0 .071 0 .071.039 0 .115-.243.138-.32.138-.215 0-.359-.1-.43-.282-.232.2-.536.32-.845.32-.359 0-.596-.132-.596-.524 0-.293.094-.64 1.385-.856v-.425zm1.733 1.281c0 .514.491.248.491.425 0 .05-.028.06-.088.06-.078 0-.21-.022-.52-.022-.369 0-.468.023-.507.023-.044 0-.061-.017-.061-.05 0-.116.282-.094.282-.32v-1.424c0-.331-.398-.188-.398-.304 0-.033.045-.055.072-.06.425-.1.535-.277.663-.277.033 0 .066.033.066.089v.414h.01c.117-.16.315-.459.547-.459.116 0 .364.144.364.249 0 .083-.132.248-.198.248-.105 0-.166-.127-.365-.127-.226 0-.358.254-.358.326v1.209m2.616-1.082c.077 0 .11-.028.11-.11 0-.31-.31-.585-.612-.585-.343 0-.586.391-.586.695h1.088zm-1.088.149c0 .91.552 1.181.889 1.181.475 0 .657-.287.778-.287.022 0 .022.023.022.039 0 .127-.48.524-.977.524-.828 0-1.115-.767-1.115-1.131 0-.707.392-1.298 1.082-1.298.679 0 .977.658.977.879 0 .099-.06.093-.188.093h-1.468zm3.438.442c-.022-.11.005-.171.06-.171.078 0 .078.066.105.182a1.18 1.18 0 001.16.828c.524 0 1.037-.293 1.037-.873 0-1.065-2.241-.469-2.241-1.91 0-.7.59-1.037 1.226-1.037.667 0 .85.199.927.199.05 0 .06-.061.116-.061.033 0 .06.016.066.077l.083.75c.005.045-.005.084-.06.084-.062 0-.1-.116-.117-.166-.165-.475-.568-.717-1.054-.717-.436 0-.9.21-.9.717 0 1.038 2.241.43 2.241 1.954 0 .464-.325 1.159-1.578 1.159-.41 0-.911-.204-.933-.303l-.138-.712m4.547-.591c.077 0 .11-.028.11-.11 0-.31-.308-.585-.612-.585-.343 0-.585.391-.585.695h1.087zm-1.087.149c0 .91.552 1.181.889 1.181.474 0 .656-.287.778-.287.022 0 .022.023.022.039 0 .127-.48.524-.977.524-.828 0-1.115-.767-1.115-1.131 0-.707.392-1.298 1.081-1.298.68 0 .978.658.978.879 0 .099-.061.093-.188.093h-1.468zm2.759.933c0 .514.49.248.49.425 0 .05-.026.06-.087.06-.078 0-.21-.022-.519-.022-.37 0-.469.023-.508.023-.044 0-.06-.017-.06-.05 0-.116.28-.094.28-.32v-1.424c0-.331-.397-.188-.397-.304 0-.033.045-.055.072-.06.425-.1.535-.277.662-.277.034 0 .067.033.067.089v.414h.011c.116-.16.314-.459.546-.459.116 0 .364.144.364.249 0 .083-.132.248-.198.248-.105 0-.166-.127-.364-.127-.227 0-.36.254-.36.326v1.209m2.418.016l.37-.794c.105-.222.242-.453.242-.701 0-.31-.342-.155-.342-.293 0-.066.06-.071.133-.071.116 0 .22.021.342.021.094 0 .193-.021.287-.021.055 0 .15.005.15.082 0 .071-.2.039-.277.204l-.845 1.789c-.105.226-.105.292-.187.292-.072 0-.094-.094-.11-.132l-.834-1.905c-.105-.248-.304-.165-.304-.264 0-.04.006-.066.116-.066.105 0 .105.021.47.021.204 0 .276-.021.342-.021.077 0 .126 0 .126.06 0 .11-.314.039-.314.204 0 .016.027.105.094.27l.54 1.326m2.302-2.766c0 .067-.16.287-.232.287-.066 0-.232-.226-.232-.287 0-.06.166-.293.232-.293.071 0 .232.227.232.293zm-.43 1.44c0-.33-.304-.187-.304-.303 0-.03.02-.055.05-.06.352-.1.463-.277.59-.277.034 0 .066.033.066.089v1.981c0 .282.436.16.436.304 0 .044-.033.06-.105.06-.116 0-.287-.022-.513-.022-.177 0-.32.023-.38.023-.045 0-.078-.006-.083-.061 0-.138.243.072.243-.43v-1.304zm1.108.663c0-.69.547-1.259 1.242-1.259.276 0 .651.078.668.205.011.12.006.254.006.326 0 .077-.017.115-.045.115-.054 0-.115-.104-.132-.127a.8.8 0 00-.685-.336c-.469 0-.65.485-.65.883 0 .596.352 1.087.976 1.087.43 0 .673-.32.757-.32.016 0 .043.016.043.033 0 .09-.33.563-1.087.563-.635 0-1.093-.558-1.093-1.17m3.962-.436c.078 0 .111-.028.111-.11 0-.31-.31-.585-.613-.585-.342 0-.585.391-.585.695h1.087zm-1.087.149c0 .91.552 1.181.889 1.181.474 0 .657-.287.778-.287.022 0 .022.023.022.039 0 .127-.48.524-.977.524-.828 0-1.115-.767-1.115-1.131 0-.707.392-1.298 1.082-1.298.679 0 .977.658.977.879 0 .099-.06.093-.188.093h-1.468zm5.37-2.539c1.037 0 1.324.425 1.485.425.044 0 .077-.055.132-.055.06 0 .06.088.077.446.012.294.06.475-.033.475-.066 0-.105-.143-.127-.181-.342-.591-.734-.95-1.446-.95-1.076 0-1.595.717-1.595 1.744 0 .96.551 1.921 1.612 1.921.866 0 1.407-.552 1.49-.806.011-.038.044-.072.077-.072.028 0 .056.034.05.061l-.127.552c-.006.022-.398.436-1.64.436-1.131 0-1.943-.778-1.943-1.92 0-1.143.823-2.076 1.988-2.076m4.067 2.881c0-.568-.238-1.192-.895-1.192-.54 0-.761.475-.761.944 0 .54.253 1.247.899 1.247.463 0 .757-.315.757-.999zm-2.043-.055c0-.68.536-1.259 1.23-1.259.42 0 1.199.205 1.199 1.232a1.17 1.17 0 01-1.193 1.197c-.717 0-1.236-.425-1.236-1.17zm3.488.646c0 .514.491.248.491.425 0 .05-.028.06-.088.06-.078 0-.21-.022-.52-.022-.37 0-.468.023-.507.023-.044 0-.061-.017-.061-.05 0-.116.282-.094.282-.32v-1.424c0-.331-.398-.188-.398-.304 0-.033.044-.055.072-.06.425-.1.536-.277.663-.277.032 0 .066.033.066.089v.414h.01c.117-.16.315-.459.547-.459.116 0 .365.144.365.249 0 .083-.133.248-.199.248-.105 0-.166-.127-.364-.127-.227 0-.359.254-.359.326v1.209m1.765-.11c0 .297.343.502.718.502.508 0 .723-.486.723-.922 0-.502-.254-1.115-.839-1.115-.562 0-.607.425-.602.436v1.099zm0 1.286c0 .364.508.226.508.358 0 .066-.038.072-.105.072-.071 0-.203-.022-.573-.022-.216 0-.376.022-.436.022-.05 0-.084-.01-.084-.06 0-.144.288-.056.288-.393v-2.461c0-.331-.376-.188-.376-.304 0-.03.02-.055.05-.06.425-.1.535-.277.662-.277.034 0 .066.033.066.089v.32c.337-.315.608-.365.757-.365.651 0 .988.514.988 1.121 0 .508-.32 1.308-1.176 1.308-.199 0-.392-.06-.569-.149v.801zm4.145-1.767c0-.568-.237-1.192-.894-1.192-.541 0-.762.475-.762.944 0 .54.254 1.247.9 1.247.463 0 .756-.315.756-.999zm-2.042-.055c0-.68.535-1.259 1.23-1.259.42 0 1.199.205 1.199 1.232 0 .679-.514 1.197-1.193 1.197-.717 0-1.236-.425-1.236-1.17zm3.487.646c0 .514.492.248.492.425 0 .05-.028.06-.089.06-.077 0-.21-.022-.518-.022-.37 0-.47.023-.509.023-.043 0-.06-.017-.06-.05 0-.116.282-.094.282-.32v-1.424c0-.331-.398-.188-.398-.304 0-.033.044-.055.072-.06.425-.1.535-.277.663-.277.032 0 .065.033.065.089v.414h.012c.116-.16.314-.459.546-.459.116 0 .364.144.364.249 0 .083-.132.248-.198.248-.105 0-.166-.127-.365-.127-.226 0-.359.254-.359.326v1.209m2.556-.724c-.354.078-1.027.167-1.027.652 0 .315.16.436.452.436.2 0 .575-.154.575-.447v-.641zm0-.557c0-.287-.227-.48-.57-.48-.264 0-.48.028-.48.331 0 .083.034.166.034.227 0 .06-.017.104-.122.104-.094 0-.259-.082-.259-.182.005-.254.315-.64.927-.624.343 0 .872.1.872.569v1.143c0 .187-.05.513.238.513.022 0 .071-.011.094-.011.027 0 .071 0 .071.039 0 .115-.243.138-.32.138-.215 0-.359-.1-.43-.282-.232.2-.536.32-.845.32-.359 0-.596-.132-.596-.524 0-.293.094-.64 1.386-.856v-.425zm1.313-.325c-.26 0-.3 0-.3-.04 0-.044.14-.137.42-.446.111-.133.167-.254.21-.254.078 0 .073.116.073.513h.607c.137 0 .198-.094.215-.094.027 0 .038.028.038.044 0 .023-.016.05-.033.078l-.11.2h-.717v1.605c.01.226.165.33.386.33.292 0 .375-.126.47-.126.021 0 .043.006.043.05 0 .083-.298.27-.685.27-.253 0-.617-.071-.617-.64v-1.49m2.378-1.143c0 .067-.16.287-.232.287-.066 0-.232-.226-.232-.287 0-.06.166-.293.232-.293.072 0 .232.227.232.293zm-.43 1.44c0-.33-.305-.187-.305-.303 0-.03.02-.055.05-.06.353-.1.464-.277.59-.277.034 0 .067.033.067.089v1.981c0 .282.436.16.436.304 0 .044-.033.06-.104.06-.117 0-.288-.022-.514-.022-.177 0-.32.023-.38.023-.045 0-.078-.006-.084-.061 0-.138.243.072.243-.43v-1.303l.001-.001zm3.156.718c0-.568-.237-1.192-.894-1.192-.54 0-.762.475-.762.944 0 .54.254 1.247.9 1.247.463 0 .756-.315.756-.999zm-2.043-.055c0-.68.536-1.259 1.232-1.259.42 0 1.197.205 1.197 1.232a1.17 1.17 0 01-1.192 1.197c-.717 0-1.237-.425-1.237-1.17zm3.483.685c0 .38.486.22.486.37 0 .066-.04.077-.122.077-.094 0-.204-.023-.524-.023-.293 0-.404.023-.47.023-.071 0-.099-.011-.099-.067 0-.11.326 0 .326-.359v-1.368c0-.331-.409-.188-.409-.304 0-.03.02-.055.05-.06.458-.1.568-.277.695-.277.034 0 .067.033.067.089v.364c-.011.066.265-.409.8-.409.74 0 .9.613.9 1.032v.912c0 .38.43.22.43.37 0 .066-.038.077-.093.077-.072 0-.21-.023-.48-.023-.21 0-.327.023-.398.023-.071 0-.1-.011-.1-.067 0-.11.238 0 .238-.359v-1.032c0-.275-.199-.69-.646-.69-.464 0-.657.342-.651.43v1.27" fill="#000" fill-rule="evenodd"></path>
</svg>