<svg width="48" height="48" viewBox="0 0 48 48" fill="none" xmlns="http://www.w3.org/2000/svg">
<rect width="48" height="48" rx="24" fill="#FFEADB"/>
<path d="M33.7754 31.3275C33.7774 31.6718 33.6983 32.0125 33.5435 32.3271C33.3886 32.6418 33.1615 32.923 32.8772 33.1524C32.5929 33.3817 32.2579 33.5538 31.8944 33.6573C31.5309 33.7609 31.1472 33.7934 30.7687 33.7528C29.3909 33.5686 28.3813 32.4856 28.4149 31.2278V16.767C28.3816 15.5079 29.3937 14.4242 30.7733 14.2421C31.1514 14.2021 31.5346 14.2351 31.8976 14.3389C32.2606 14.4426 32.595 14.6149 32.8788 14.8441C33.1626 15.0734 33.3893 15.3545 33.5438 15.6688C33.6984 15.9831 33.7773 16.3234 33.7754 16.6673V31.3275Z" fill="#F9AB00"/>
<path d="M16.9068 28.9319C18.3871 28.9319 19.5871 30.0159 19.5871 31.3531C19.5871 32.6903 18.3871 33.7743 16.9068 33.7743C15.4265 33.7743 14.2266 32.6903 14.2266 31.3531C14.2266 30.0159 15.4265 28.9319 16.9068 28.9319ZM23.9591 21.5935C22.4719 21.6671 21.3179 22.7941 21.3525 24.1393V30.6429C21.3525 32.4079 22.2122 33.4795 23.4718 33.7078C23.8623 33.7793 24.2656 33.7714 24.6523 33.6847C25.039 33.5979 25.3995 33.4345 25.7076 33.2063C26.0157 32.978 26.2637 32.6907 26.4336 32.3651C26.6036 32.0396 26.6911 31.6839 26.69 31.324V24.0272C26.6906 23.7047 26.6202 23.3852 26.4827 23.0875C26.3452 22.7898 26.1435 22.5198 25.8893 22.2932C25.6351 22.0667 25.3335 21.8882 25.0021 21.768C24.6707 21.6479 24.3162 21.5886 23.9591 21.5935V21.5935Z" fill="#E37400"/>
</svg>
