<svg width="361" height="307" viewBox="0 0 361 307" fill="none" xmlns="http://www.w3.org/2000/svg">
<g clip-path="url(#clip0_8334_17558)">
<rect width="360" height="307" transform="translate(0.5625)" fill="white"/>
<rect x="0.5625" width="1441" height="454" fill="url(#paint0_linear_8334_17558)"/>
<path opacity="0.5" d="M145.605 141.179C140.831 142.817 136.291 138.188 138.021 133.447L181.086 15.4037C181.782 13.4957 181.465 11.365 180.245 9.74163L104.733 -90.6914C101.7 -94.7252 104.699 -100.473 109.742 -100.293L235.316 -95.8138C237.346 -95.7414 239.274 -96.7008 240.441 -98.3632L312.624 -201.215C315.523 -205.346 321.917 -204.27 323.304 -199.418L357.848 -78.6057C358.407 -76.6529 359.915 -75.1152 361.857 -74.5193L481.98 -37.6522C486.805 -36.1715 487.757 -29.7585 483.571 -26.9395L379.347 43.247C377.662 44.3815 376.666 46.2912 376.699 48.322L378.757 173.959C378.839 179.005 373.035 181.893 369.06 178.783L270.102 101.348C268.502 100.096 266.378 99.7389 264.457 100.398L145.605 141.179Z" fill="url(#paint1_linear_8334_17558)"/>
</g>
<defs>
<linearGradient id="paint0_linear_8334_17558" x1="1149.86" y1="48.0668" x2="1043.73" y2="494.232" gradientUnits="userSpaceOnUse">
<stop stop-color="#EEA8FF"/>
<stop offset="1" stop-color="#FFAFAF"/>
</linearGradient>
<linearGradient id="paint1_linear_8334_17558" x1="459.157" y1="158.343" x2="214.264" y2="39.3258" gradientUnits="userSpaceOnUse">
<stop stop-color="white"/>
<stop offset="1" stop-color="white" stop-opacity="0"/>
</linearGradient>
<clipPath id="clip0_8334_17558">
<rect width="360" height="307" fill="white" transform="translate(0.5625)"/>
</clipPath>
</defs>
</svg>
