<svg width="1921" height="425" viewBox="0 0 1921 425" fill="none" xmlns="http://www.w3.org/2000/svg">
<g clip-path="url(#clip0_8334_17521)">
<rect width="1920" height="425" transform="translate(0.5625)" fill="white"/>
<rect x="-57.5234" y="-3" width="1978.09" height="454" fill="url(#paint0_linear_8334_17521)"/>
<path opacity="0.5" d="M1780.72 51.4122C1787.54 46.492 1797.02 51.6795 1796.55 60.0777L1786.64 238.413C1786.46 241.793 1787.99 245.039 1790.72 247.038L1934.85 352.525C1941.64 357.493 1939.64 368.111 1931.51 370.262L1758.84 415.945C1755.56 416.811 1752.95 419.274 1751.89 422.489L1696.11 592.165C1693.48 600.155 1682.76 601.53 1678.21 594.461L1581.4 444.359C1579.57 441.515 1576.42 439.791 1573.03 439.779L1394.42 439.157C1386.01 439.128 1381.39 429.359 1386.7 422.839L1499.55 284.388C1501.68 281.764 1502.35 278.237 1501.32 275.014L1446.71 104.953C1444.14 96.9449 1452.01 89.5329 1459.85 92.5719L1626.39 157.107C1629.55 158.33 1633.11 157.873 1635.86 155.893L1780.72 51.4122Z" fill="url(#paint1_linear_8334_17521)"/>
<path opacity="0.5" d="M168.285 447.394C163.349 454.205 152.722 452.252 150.532 444.13L104.029 271.68C103.147 268.412 100.672 265.811 97.4516 264.769L-72.4873 209.791C-80.4901 207.202 -81.9159 196.491 -74.8691 191.899L74.7709 94.3812C77.6069 92.533 79.3154 89.3755 79.3111 85.9905L79.084 -92.6201C79.0733 -101.031 88.8196 -105.697 95.3648 -100.414L234.351 11.7671C236.985 13.8932 240.516 14.5424 243.734 13.4922L413.532 -41.9174C421.529 -44.5268 428.978 -36.6993 425.976 -28.842L362.234 138.007C361.026 141.17 361.5 144.728 363.493 147.464L468.661 291.83C473.614 298.628 468.472 308.132 460.071 307.705L281.691 298.642C278.31 298.471 275.072 300.021 273.086 302.762L168.285 447.394Z" fill="url(#paint2_linear_8334_17521)"/>
</g>
<defs>
<linearGradient id="paint0_linear_8334_17521" x1="1520.14" y1="45.0668" x2="1440.83" y2="502.734" gradientUnits="userSpaceOnUse">
<stop stop-color="#EEA8FF"/>
<stop offset="1" stop-color="#FFAFAF"/>
</linearGradient>
<linearGradient id="paint1_linear_8334_17521" x1="1471.98" y1="28.0495" x2="1581.96" y2="340.856" gradientUnits="userSpaceOnUse">
<stop stop-color="white"/>
<stop offset="1" stop-color="white" stop-opacity="0"/>
</linearGradient>
<linearGradient id="paint2_linear_8334_17521" x1="552.52" y1="208.5" x2="266.268" y2="110.228" gradientUnits="userSpaceOnUse">
<stop stop-color="white"/>
<stop offset="1" stop-color="white" stop-opacity="0"/>
</linearGradient>
<clipPath id="clip0_8334_17521">
<rect width="1920" height="425" fill="white" transform="translate(0.5625)"/>
</clipPath>
</defs>
</svg>
