<svg width="48" height="48" viewBox="0 0 48 48" fill="none" xmlns="http://www.w3.org/2000/svg">
<rect width="48" height="48" rx="24" fill="#F3EEFF"/>
<rect x="8.5" y="17.2998" width="31" height="13.4" rx="6.7" stroke="#8247FF"/>
<path d="M18.7415 22L17.5196 25.7079L16.3061 22H15.4213L14.1826 25.6891L12.9944 22H12L13.6517 27H14.6629L15.8427 23.5543L17.0056 27H18.0168L19.6769 22H18.7415Z" fill="#8247FF"/>
<path d="M26.4031 22L25.1812 25.7079L23.9677 22H23.0829L21.8441 25.6891L20.6559 22H19.6616L21.3132 27H22.3245L23.5042 23.5543L24.6671 27H25.6784L27.3384 22H26.4031Z" fill="#8247FF"/>
<path d="M34.0646 22L32.8427 25.7079L31.6292 22H30.7444L29.5057 25.6891L28.3175 22H27.3231L28.9748 27H29.986L31.1658 23.5543L32.3287 27H33.3399L35 22H34.0646Z" fill="#8247FF"/>
</svg>
