<svg width="49" height="48" viewBox="0 0 49 48" fill="none" xmlns="http://www.w3.org/2000/svg">
<rect x="0.265625" width="48" height="48" rx="24" fill="#FFD6D6"/>
<path d="M14.2656 31V29H24.2656V31H14.2656ZM14.2656 26V24H19.2656V26H14.2656ZM14.2656 21V19H19.2656V21H14.2656ZM32.8656 31L29.0156 27.15C28.6156 27.4333 28.1783 27.6457 27.7036 27.787C27.2283 27.929 26.749 28 26.2656 28C24.8823 28 23.7033 27.5123 22.7286 26.537C21.7533 25.5623 21.2656 24.3833 21.2656 23C21.2656 21.6167 21.7533 20.4373 22.7286 19.462C23.7033 18.4873 24.8823 18 26.2656 18C27.649 18 28.8283 18.4873 29.8036 19.462C30.7783 20.4373 31.2656 21.6167 31.2656 23C31.2656 23.4833 31.195 23.9627 31.0536 24.438C30.9116 24.9127 30.699 25.35 30.4156 25.75L34.2656 29.6L32.8656 31ZM26.2656 26C27.099 26 27.8073 25.7083 28.3906 25.125C28.974 24.5417 29.2656 23.8333 29.2656 23C29.2656 22.1667 28.974 21.4583 28.3906 20.875C27.8073 20.2917 27.099 20 26.2656 20C25.4323 20 24.724 20.2917 24.1406 20.875C23.5573 21.4583 23.2656 22.1667 23.2656 23C23.2656 23.8333 23.5573 24.5417 24.1406 25.125C24.724 25.7083 25.4323 26 26.2656 26Z" fill="#A30000"/>
</svg>
