<svg width="136" height="25" viewBox="0 0 136 25" fill="none" xmlns="http://www.w3.org/2000/svg">
<path d="M17.8119 2.71502V7.35564C17.8089 10.2144 17.1217 13.0304 15.8086 15.5655C14.5115 18.0655 12.6393 20.2173 10.3479 21.8414L9.73154 22.2812V1.63239C12.4544 1.71741 15.1618 2.08015 17.8119 2.71502Z" fill="#232343"/>
<path d="M6.73923 7.37536V5.99953L4.89846 4.24308V2.26955H4.66872V4.24308L2.82513 5.99953V10.2483H3.30704V9.63364H4.65751V10.2483H5.13941V9.63364H5.57369C5.54017 9.37449 5.4564 9.12447 5.32713 8.8978V7.37818L6.73923 7.37536ZM5.1198 7.05959H4.47259V6.36322C4.46986 6.34169 4.46986 6.3199 4.47259 6.29837C4.48358 6.23598 4.51399 6.17872 4.55944 6.13485L4.59306 6.10666C4.59927 6.0995 4.60691 6.09374 4.61548 6.08974C4.66757 6.05691 4.72773 6.03933 4.78919 6.039C4.84643 6.03884 4.90263 6.05443 4.95169 6.0841L4.97411 6.0982L5.01614 6.13485C5.06131 6.17933 5.09249 6.2362 5.10579 6.29837C5.10718 6.31997 5.10718 6.34163 5.10579 6.36322L5.1198 7.05959Z" fill="#232343"/>
<path d="M8.86579 7.75035H8.86299V8.28039H8.86579V7.75035Z" fill="#232343"/>
<path d="M6.12287 10.003V11.2322C5.74462 11.8525 5.82027 12.7857 5.81747 13.4877H4.6099V14.1897H3.95428V13.4877H2.7271C2.3077 12.3629 2.01176 11.1953 1.84453 10.0058H2.45813V10.6232H3.6797V10.003H4.27929V10.6204H5.50087V10.003H6.12287Z" fill="#232343"/>
<path d="M7.77311 13.857V15.2667C7.5409 15.6996 7.42048 16.1843 7.42288 16.6763V20.5022C5.92093 19.1202 4.66781 17.4872 3.71891 15.6755C3.4177 15.1026 3.14832 14.5134 2.912 13.9106V13.8683H3.60964V14.5703H5.01054V13.857H5.68017V14.559H7.08106V13.857H7.77311Z" fill="#232343"/>
<path d="M19.084 1.35892C16.0206 0.539024 12.8723 0.0829439 9.70355 0C6.42518 0.0756391 3.16923 0.565337 0.0121519 1.45759C0.0709896 4.40661 -0.242811 9.15155 0.57251 11.9737C0.785446 12.7124 0.981576 13.4454 1.25055 14.1671C2.0667 16.347 3.26633 18.3611 4.79201 20.1131C5.89233 21.3488 7.13048 22.4528 8.48197 23.4033C8.89383 23.7021 9.3085 23.9925 9.72316 24.2857C15.7022 20.4937 19.4006 14.5477 19.4286 7.36973V1.45759L19.084 1.35892ZM18.4816 7.35563C18.532 13.7414 15.0662 19.741 9.71756 23.1242C4.39416 19.741 0.933948 13.7358 0.956363 7.35563V2.17934C6.69629 0.627336 12.7416 0.627336 18.4816 2.17934V7.35563Z" fill="#232343"/>
<path d="M6.9746 2.65016C6.86533 2.73756 6.60757 2.81368 6.60757 2.96875C6.68597 3.1467 6.75334 3.32936 6.8093 3.5157C6.81476 3.52713 6.8176 3.53966 6.8176 3.55235C6.8176 3.56504 6.81476 3.57756 6.8093 3.589C6.80562 3.5932 6.80109 3.59656 6.79602 3.59887C6.79095 3.60117 6.78544 3.60236 6.77988 3.60236C6.77431 3.60236 6.76881 3.60117 6.76374 3.59887C6.75867 3.59656 6.75415 3.5932 6.75046 3.589C6.27696 3.25632 5.66337 3.61156 5.17586 3.36063V2.28083C5.66057 2.52893 6.51231 2.17652 6.95219 2.50356C6.97461 2.52329 7.08107 2.5966 6.9746 2.65016Z" fill="#232343"/>
<path d="M7.28281 8.27757V8.28039H6.22654V7.75035H6.22934V8.27757H7.28281Z" fill="#232343"/>
<path d="M8.86579 8.28039L7.80953 8.28038V8.2832H8.8658L8.86579 8.28039Z" fill="#232343"/>
<path d="M9.39256 7.74751V8.8104C9.21911 9.13543 9.12861 9.49872 9.1292 9.86765V21.8611C8.6613 21.5256 8.22982 21.1873 7.79274 20.8151V16.6594C7.79674 16.2026 7.9163 15.7543 8.14016 15.3569V13.4877H6.70565V14.1869H6.18731C6.22374 13.4228 6.03321 11.9906 6.49271 11.3252V9.63365H5.96037C5.93313 9.34515 5.84832 9.06514 5.71101 8.8104V7.74751H6.23774V8.28037H7.29682V7.74751H7.82356V8.28037H8.87984V7.74751H9.39256Z" fill="#232343"/>
<path d="M41.3305 16.7412H33.0898L38.1653 8.90027H33.6135V7.28613H41.5265L36.4511 15.1153H41.3305V16.7412Z" fill="#353753"/>
<path d="M49.694 16.7412V7.28613H55.4657V8.99158H51.7915V10.9445H55.4657V12.6617H51.7915V15.0328H55.4657V16.7501L49.694 16.7412Z" fill="#353753"/>
<path d="M63.528 16.7412L65.0199 7.28613H67.2169L69.1037 12.8531C69.1582 13.021 69.2021 13.1922 69.2354 13.3657C69.2822 13.5895 69.326 13.8458 69.3641 14.1315C69.4021 13.8369 69.4401 13.5777 69.4869 13.348C69.5153 13.176 69.5573 13.0066 69.6127 12.8414L71.5347 7.28613H73.6965L75.1972 16.7412H73.2167L72.5 11.0387C72.4474 10.6175 72.4123 10.2994 72.3947 10.0814C72.3772 9.86345 72.3655 9.6661 72.3655 9.49232C72.3655 9.39217 72.3655 9.31853 72.3655 9.26846C72.3622 9.22433 72.3622 9.18002 72.3655 9.1359C72.2982 9.50704 72.2338 9.82516 72.1753 10.0961C72.1168 10.3671 72.0583 10.5674 72.0115 10.7059L69.9345 16.7501H68.7644L66.7166 10.7059C66.6991 10.6499 66.661 10.4938 66.5996 10.2405C66.5382 9.98716 66.4563 9.61603 66.351 9.13002V9.4069C66.3436 9.94701 66.3026 10.4861 66.2281 11.021V11.0475L65.5172 16.7501L63.528 16.7412Z" fill="#353753"/>
<path d="M91.8395 7.28613V13.1772C91.8395 14.4594 91.4895 15.4177 90.7893 16.052C90.0872 16.6823 89.0341 17.0004 87.6212 17.0004C86.2082 17.0004 85.1229 16.6823 84.4208 16.052C83.7188 15.4216 83.3706 14.4584 83.3706 13.1772V7.28613H85.4535V12.8531C85.4535 13.6386 85.6319 14.2277 85.9888 14.6204C86.1979 14.8285 86.4491 14.9889 86.7252 15.0905C87.0013 15.1922 87.2959 15.2328 87.589 15.2095C87.8851 15.2316 88.1824 15.1905 88.4617 15.089C88.7409 14.9875 88.9958 14.8278 89.2096 14.6204C89.5763 14.2277 89.7596 13.6386 89.7596 12.8531V7.28613H91.8395Z" fill="#353753"/>
<path d="M107.955 16.7412H105.539L102.962 12.3229V16.7412H100.864V7.28613H103.866C105.057 7.28613 105.95 7.509 106.542 7.95475C107.135 8.4005 107.433 9.0711 107.435 9.96654C107.446 10.5797 107.228 11.1748 106.824 11.6333C106.42 12.0919 105.858 12.3802 105.252 12.4408L107.955 16.7412ZM102.962 11.3156H103.275C104.123 11.3156 104.684 11.2262 104.957 11.0475C105.1 10.9411 105.212 10.799 105.284 10.6352C105.355 10.4714 105.382 10.2916 105.363 10.1138C105.382 9.92473 105.351 9.73416 105.274 9.5607C105.197 9.38725 105.077 9.23682 104.925 9.12413C104.632 8.92678 104.082 8.82958 103.275 8.82958H102.962V11.3156Z" fill="#353753"/>
<path d="M116.07 16.7412V7.28613H118.165V16.7412H116.07Z" fill="#353753"/>
<path d="M126.092 16.7412L129.822 7.28613H132.218L136.001 16.7412H133.619L132.821 14.7324H129.018L128.336 16.7412H126.092ZM132.332 13.1447L131.235 10.0902C131.186 9.93754 131.146 9.78217 131.115 9.62487C131.065 9.40395 131.013 9.13592 130.96 8.8178C130.902 9.11235 130.846 9.4069 130.793 9.63959C130.741 9.87229 130.7 10.0461 130.673 10.1285L129.615 13.1447H132.332Z" fill="#353753"/>
</svg>
