<svg width="49" height="48" viewBox="0 0 49 48" fill="none" xmlns="http://www.w3.org/2000/svg">
<rect x="0.265625" width="48" height="48" rx="24" fill="#FFEDFE"/>
<path d="M35.7969 17.5292H35.7856C35.647 17.2814 35.4441 17.0778 35.1994 16.9409L25.2779 11.208C25.0403 11.0716 24.7724 11 24.4999 11C24.2275 11 23.9596 11.0716 23.722 11.208L13.8005 16.9178C13.5751 17.0486 13.3852 17.235 13.248 17.4599L13.2142 17.5061H13.2029C13.0729 17.7505 13.0032 18.0237 13 18.302V29.6754C12.9996 29.9614 13.0736 30.2425 13.2142 30.4898C13.3549 30.737 13.5572 30.9416 13.8005 31.0826L23.722 36.7924C23.9338 36.9118 24.1685 36.9826 24.4097 37H24.6014C24.8388 36.981 25.0694 36.9102 25.2779 36.7924L35.1994 31.0826C35.4427 30.9416 35.645 30.737 35.7856 30.4898C35.9263 30.2425 36.0002 29.9614 35.9998 29.6754V18.3251C36.0037 18.0459 35.9336 17.7708 35.7969 17.5292ZM24.3872 12.4077L24.4999 12.3846L24.6127 12.4077L33.9479 17.7829L30.0357 20.0553L20.475 14.657L24.3872 12.4077ZM24.6014 23.2158L15.0632 17.7829L19.0882 15.4644L28.6602 20.8627L24.6014 23.2158ZM14.4657 29.9061C14.4318 29.8835 14.4037 29.8528 14.3841 29.8166C14.3644 29.7804 14.3537 29.7398 14.3529 29.6984V18.9595L23.9249 24.4155L23.8347 35.2928L14.4657 29.9061ZM34.5342 29.9061L25.1877 35.2813L25.2779 24.4155L29.3479 22.0508V26.8378C29.3479 27.0213 29.4192 27.1974 29.5461 27.3272C29.6729 27.457 29.845 27.5299 30.0244 27.5299C30.2038 27.5299 30.3759 27.457 30.5027 27.3272C30.6296 27.1974 30.7009 27.0213 30.7009 26.8378V21.2664L34.6469 18.971V29.6984C34.6461 29.7398 34.6354 29.7804 34.6158 29.8166C34.5961 29.8528 34.5681 29.8835 34.5342 29.9061Z" fill="#7B1474"/>
</svg>
