<svg width="35" height="34" viewBox="0 0 35 34" fill="none" xmlns="http://www.w3.org/2000/svg">
<path d="M29.8688 15.485C30.765 15.1214 30.6745 13.8239 29.7364 13.5884L24.8812 12.3693C24.4593 12.2634 24.1543 11.897 24.1267 11.4629L23.803 6.37548C23.7412 5.40401 22.4688 5.08453 21.9554 5.91158L19.2669 10.2427C19.0375 10.6122 18.5956 10.7911 18.1737 10.6852L13.2882 9.45852C12.3531 9.22374 11.66 10.3178 12.2718 11.0629L15.5075 15.0044C15.7785 15.3345 15.8099 15.8004 15.5856 16.1639L12.905 20.5094C12.3959 21.3346 13.2413 22.3287 14.1376 21.9588L18.7752 20.0447C19.1819 19.8769 19.6505 19.9946 19.9297 20.3346L23.1037 24.201C23.7198 24.9515 24.9363 24.472 24.8746 23.503L24.5487 18.3808C24.5214 17.9512 24.772 17.5524 25.1708 17.3906L29.8688 15.485Z" fill="#FFCE31"/>
<path d="M11.7749 27.1502C12.223 26.9685 12.1777 26.3197 11.7087 26.202L9.16821 25.5641C8.95729 25.5111 8.80479 25.3279 8.79098 25.1109L8.62161 22.449C8.59071 21.9632 7.95451 21.8035 7.69781 22.217L6.29108 24.4832C6.17639 24.668 5.95543 24.7574 5.74451 24.7045L3.1889 24.0628C2.72136 23.9454 2.37482 24.4924 2.68068 24.865L4.37275 26.9261C4.50827 27.0912 4.52397 27.3241 4.41184 27.5059L3.00967 29.7789C2.75514 30.1915 3.17784 30.6885 3.62596 30.5036L6.05292 29.5019C6.25625 29.418 6.49055 29.4768 6.63012 29.6469L8.29137 31.6704C8.59943 32.0457 9.20764 31.806 9.17681 31.3214L9.00634 28.6422C8.99267 28.4274 9.11797 28.228 9.31739 28.1471L11.7749 27.1502Z" fill="#FFCE31"/>
</svg>
