<svg width="18" height="15" viewBox="0 0 18 15" fill="none" xmlns="http://www.w3.org/2000/svg">
<path d="M1.27148 13.346C1.27148 13.346 3.50048 10.5 9.00048 10.5C14.5005 10.5 16.7305 13.346 16.7305 13.346M9.00048 7C9.79613 7 10.5592 6.68393 11.1218 6.12132C11.6844 5.55871 12.0005 4.79565 12.0005 4C12.0005 3.20435 11.6844 2.44129 11.1218 1.87868C10.5592 1.31607 9.79613 1 9.00048 1C8.20483 1 7.44177 1.31607 6.87916 1.87868C6.31655 2.44129 6.00048 3.20435 6.00048 4C6.00048 4.79565 6.31655 5.55871 6.87916 6.12132C7.44177 6.68393 8.20483 7 9.00048 7V7Z" stroke="black" stroke-width="1.5" stroke-linecap="round" stroke-linejoin="round"/>
</svg>
