<svg width="49" height="48" viewBox="0 0 49 48" fill="none" xmlns="http://www.w3.org/2000/svg">
<rect x="0.265625" width="48" height="48" rx="24" fill="#D5F2D4"/>
<g clip-path="url(#clip0_7454_16155)">
<path d="M12.2656 24C12.2656 20.8174 13.5299 17.7652 15.7803 15.5147C18.0308 13.2643 21.083 12 24.2656 12C27.4482 12 30.5005 13.2643 32.7509 15.5147C35.0013 17.7652 36.2656 20.8174 36.2656 24C36.2656 27.1826 35.0013 30.2348 32.7509 32.4853C30.5005 34.7357 27.4482 36 24.2656 36C21.083 36 18.0308 34.7357 15.7803 32.4853C13.5299 30.2348 12.2656 27.1826 12.2656 24V24ZM23.5156 13.6155C22.5106 13.9215 21.5131 14.8455 20.6851 16.398C20.4123 16.9141 20.1777 17.4496 19.9831 18H23.5156V13.6155ZM18.4006 18C18.6506 17.2032 18.9719 16.4306 19.3606 15.6915C19.62 15.2011 19.9195 14.733 20.2561 14.292C18.3976 15.0627 16.7986 16.3494 15.6481 18H18.4006ZM17.5276 23.25C17.5726 21.9345 17.7346 20.673 17.9956 19.5H14.7766C14.2173 20.6776 13.8835 21.9495 13.7926 23.25H17.5276ZM19.5361 19.5C19.2411 20.7297 19.0712 21.9861 19.0291 23.25H23.5156V19.5H19.5361ZM25.0156 19.5V23.25H29.5006C29.4591 21.9861 29.2897 20.7297 28.9951 19.5H25.0156ZM19.0306 24.75C19.0722 26.0138 19.2416 27.2702 19.5361 28.5H23.5156V24.75H19.0306ZM25.0156 24.75V28.5H28.9951C29.2756 27.3525 29.4541 26.088 29.5021 24.75H25.0156ZM19.9831 30C20.1901 30.579 20.4256 31.116 20.6851 31.602C21.5131 33.1545 22.5121 34.077 23.5156 34.3845V30H19.9831ZM20.2561 33.708C19.9195 33.267 19.62 32.7989 19.3606 32.3085C18.9719 31.5694 18.6506 30.7968 18.4006 30H15.6481C16.7986 31.6506 18.3976 32.9373 20.2561 33.708V33.708ZM17.9956 28.5C17.7244 27.2671 17.5677 26.0118 17.5276 24.75H13.7926C13.8856 26.085 14.2291 27.3495 14.7766 28.5H17.9956ZM28.2751 33.708C30.1337 32.9373 31.7327 31.6506 32.8831 30H30.1306C29.8806 30.7968 29.5593 31.5694 29.1706 32.3085C28.9113 32.799 28.6118 33.2671 28.2751 33.708V33.708ZM25.0156 30V34.3845C26.0206 34.0785 27.0181 33.1545 27.8461 31.602C28.1056 31.116 28.3411 30.579 28.5481 30H25.0156ZM30.5356 28.5H33.7546C34.3021 27.3495 34.6456 26.085 34.7386 24.75H31.0036C30.9636 26.0118 30.8069 27.2671 30.5356 28.5ZM34.7386 23.25C34.6477 21.9495 34.3139 20.6776 33.7546 19.5H30.5356C30.7966 20.673 30.9586 21.9345 31.0036 23.25H34.7386ZM29.1706 15.6915C29.5411 16.3875 29.8636 17.1615 30.1306 18H32.8831C31.7327 16.3494 30.1337 15.0627 28.2751 14.292C28.6021 14.718 28.9021 15.189 29.1706 15.6915V15.6915ZM28.5481 18C28.3536 17.4496 28.1189 16.9141 27.8461 16.398C27.0181 14.8455 26.0206 13.923 25.0156 13.6155V18H28.5481Z" fill="#267F24"/>
</g>
<defs>
<clipPath id="clip0_7454_16155">
<rect width="24" height="24" fill="white" transform="translate(12.2656 12)"/>
</clipPath>
</defs>
</svg>
