<svg width="225" height="40" viewBox="0 0 225 40" fill="none" xmlns="http://www.w3.org/2000/svg">
<path d="M64.167 27.7669H50.2461L58.82 14.5212H51.1307V11.7945H64.4981L55.9242 25.0202H64.167V27.7669Z" fill="#F5F5F5"/>
<path d="M78.2954 27.7669V11.7945H88.0455V14.6755H81.8387V17.9745H88.0455V20.8754H81.8387V24.8809H88.0455V27.7818L78.2954 27.7669Z" fill="#F5F5F5"/>
<path d="M101.665 27.7669L104.185 11.7945H107.897L111.084 21.1988C111.176 21.4824 111.25 21.7716 111.306 22.0646C111.385 22.4427 111.46 22.8756 111.524 23.3583C111.588 22.8607 111.652 22.4228 111.731 22.0347C111.779 21.7441 111.85 21.4579 111.944 21.1789L115.191 11.7945H118.843L121.378 27.7669H118.032L116.821 18.1337C116.732 17.4221 116.673 16.8848 116.643 16.5165C116.614 16.1483 116.594 15.815 116.594 15.5214C116.594 15.3522 116.594 15.2278 116.594 15.1432C116.588 15.0687 116.588 14.9938 116.594 14.9193C116.48 15.5462 116.372 16.0836 116.273 16.5414C116.174 16.9992 116.075 17.3376 115.996 17.5714L112.487 27.7818H110.511L107.052 17.5714C107.022 17.4769 106.958 17.2132 106.854 16.7852C106.75 16.3573 106.612 15.7304 106.434 14.9094V15.3771C106.421 16.2895 106.352 17.2002 106.226 18.1038V18.1486L105.025 27.7818L101.665 27.7669Z" fill="#F5F5F5"/>
<path d="M149.491 11.7945V21.7461C149.491 23.9123 148.9 25.5311 147.717 26.6025C146.531 27.6674 144.752 28.2047 142.365 28.2047C139.978 28.2047 138.145 27.6674 136.959 26.6025C135.773 25.5377 135.185 23.9106 135.185 21.7461V11.7945H138.704V21.1988C138.704 22.5257 139.005 23.5208 139.608 24.1843C139.961 24.5358 140.385 24.8067 140.852 24.9784C141.318 25.1501 141.816 25.2187 142.311 25.1794C142.811 25.2166 143.314 25.1472 143.785 24.9757C144.257 24.8043 144.687 24.5346 145.049 24.1843C145.668 23.5208 145.978 22.5257 145.978 21.1988V11.7945H149.491Z" fill="#F5F5F5"/>
<path d="M176.716 27.7669H172.634L168.28 20.3031V27.7669H164.737V11.7945H169.807C171.82 11.7945 173.327 12.171 174.329 12.924C175.33 13.677 175.833 14.8098 175.836 16.3225C175.856 17.3583 175.488 18.3636 174.804 19.1382C174.121 19.9128 173.173 20.3998 172.149 20.5022L176.716 27.7669ZM168.28 18.6014H168.809C170.242 18.6014 171.189 18.4505 171.65 18.1486C171.892 17.9689 172.082 17.7287 172.202 17.452C172.323 17.1753 172.369 16.8717 172.337 16.5713C172.368 16.2519 172.316 15.9299 172.186 15.6369C172.056 15.3439 171.853 15.0898 171.596 14.8994C171.102 14.566 170.173 14.4018 168.809 14.4018H168.28V18.6014Z" fill="#F5F5F5"/>
<path d="M190.424 27.7669V11.7945H193.962V27.7669H190.424Z" fill="#F5F5F5"/>
<path d="M207.354 27.7669L213.655 11.7945H217.703L224.092 27.7669H220.07L218.721 24.3734H212.296L211.145 27.7669H207.354ZM217.895 21.6914L216.042 16.5315C215.96 16.2735 215.892 16.011 215.839 15.7453C215.755 15.3721 215.667 14.9193 215.578 14.3819C215.479 14.8795 215.385 15.3771 215.296 15.7702C215.207 16.1633 215.138 16.4568 215.093 16.5961L213.304 21.6914H217.895Z" fill="#F5F5F5"/>
<path d="M30.0895 4.4718V12.1152C30.0843 16.8237 28.9236 21.4619 26.7054 25.6373C24.5142 29.755 21.3514 33.2991 17.4807 35.974L16.4394 36.6984V2.68865C21.0392 2.82868 25.6126 3.42612 30.0895 4.4718Z" fill="#F5F5F5"/>
<path d="M11.3845 12.1476V9.88157L8.27492 6.98861V3.73808H7.88682V6.98861L4.77247 9.88157V16.8795H5.58655V15.8672H7.86788V16.8795H8.68197V15.8672H9.41558C9.35895 15.4403 9.21744 15.0285 8.99907 14.6552V12.1523L11.3845 12.1476ZM8.64883 11.6276H7.5555V10.4806C7.5509 10.4451 7.5509 10.4093 7.5555 10.3738C7.57407 10.271 7.62545 10.1767 7.70222 10.1045L7.75902 10.058C7.76951 10.0462 7.78242 10.0367 7.79689 10.0302C7.88489 9.97608 7.9865 9.94714 8.09034 9.94658C8.18704 9.94632 8.28196 9.97201 8.36485 10.0209L8.40272 10.0441L8.47371 10.1045C8.55003 10.1777 8.6027 10.2714 8.62517 10.3738C8.62751 10.4094 8.62751 10.445 8.62517 10.4806L8.64883 11.6276Z" fill="#F5F5F5"/>
<path d="M14.9769 12.7653H14.9722V13.6383H14.9769V12.7653Z" fill="#F5F5F5"/>
<path d="M10.3433 16.4755V18.5001C9.70434 19.5217 9.83213 21.0588 9.8274 22.215H7.78746V23.3713H6.67993V22.215H4.60686C3.89838 20.3624 3.39844 18.4394 3.11595 16.4802H4.15249V17.4971H6.21609V16.4755H7.22897V17.4925H9.29257V16.4755H10.3433Z" fill="#F5F5F5"/>
<path d="M13.131 22.8233V25.1451C12.7388 25.8582 12.5353 26.6566 12.5394 27.4669V33.7683C10.0022 31.4921 7.88529 28.8025 6.28233 25.8184C5.7735 24.8749 5.31842 23.9045 4.91921 22.9115V22.8419H6.09773V23.9981H8.46425V22.8233H9.59546V23.9796H11.962V22.8233H13.131Z" fill="#F5F5F5"/>
<path d="M32.2383 2.23822C27.0634 0.887804 21.7451 0.136614 16.3921 0C10.854 0.124582 5.35375 0.931144 0.0205282 2.40074C0.119922 7.25795 -0.410179 15.0731 0.967136 19.7214C1.32685 20.938 1.65817 22.1453 2.11254 23.3341C3.49126 26.9245 5.51778 30.2419 8.09509 33.1275C9.95385 35.1627 12.0455 36.9811 14.3285 38.5466C15.0243 39.0388 15.7248 39.5171 16.4253 40C26.5256 33.7544 32.7732 23.961 32.8205 12.1384V2.40074L32.2383 2.23822ZM31.2207 12.1152C31.3059 22.6329 25.4512 32.5145 16.4158 38.0868C7.42301 32.5145 1.57771 22.6236 1.61558 12.1152V3.58951C11.312 1.03326 21.5243 1.03326 31.2207 3.58951V12.1152Z" fill="#F5F5F5"/>
<path d="M11.7821 4.36497C11.5975 4.50892 11.1621 4.6343 11.1621 4.8897C11.2945 5.1828 11.4084 5.48366 11.5029 5.79056C11.5121 5.80939 11.5169 5.83003 11.5169 5.85093C11.5169 5.87183 11.5121 5.89246 11.5029 5.91129C11.4967 5.91821 11.489 5.92375 11.4805 5.92755C11.4719 5.93134 11.4626 5.93331 11.4532 5.93331C11.4438 5.93331 11.4345 5.93134 11.4259 5.92755C11.4174 5.92375 11.4097 5.91821 11.4035 5.91129C10.6036 5.36335 9.56708 5.94844 8.74353 5.53516V3.75666C9.56235 4.1653 11.0012 3.58485 11.7443 4.12351C11.7821 4.15601 11.962 4.27674 11.7821 4.36497Z" fill="#F5F5F5"/>
<path d="M12.3028 13.6336V13.6383H10.5184V12.7653H10.5232V13.6336H12.3028Z" fill="#F5F5F5"/>
<path d="M14.9769 13.6383L13.1926 13.6383V13.6429H14.9769L14.9769 13.6383Z" fill="#F5F5F5"/>
<path d="M15.8668 12.7606V14.5113C15.5738 15.0466 15.4209 15.645 15.4219 16.2526V36.0065C14.6314 35.4539 13.9026 34.8967 13.1642 34.2837V27.439C13.171 26.6866 13.3729 25.9483 13.7511 25.2937V22.215H11.3278V23.3666H10.4522C10.5137 22.1082 10.1919 19.7492 10.9681 18.6533V15.8672H10.0688C10.0228 15.392 9.87951 14.9308 9.64755 14.5113V12.7606H10.5374V13.6383H12.3265V12.7606H13.2163V13.6383H15.0006V12.7606H15.8668Z" fill="#F5F5F5"/>
</svg>
