<svg width="118" height="56" viewBox="0 0 118 56" fill="none" xmlns="http://www.w3.org/2000/svg">
<path d="M42.9402 34.9032C43.8502 30.1032 44.7902 25.3032 45.6502 20.4932C45.8102 19.5932 46.3302 19.6732 46.9302 19.6732C51.7402 19.6732 56.5502 19.6032 61.3502 19.6732C61.9875 19.7798 62.6416 19.6453 63.1851 19.2959C63.7287 18.9465 64.1226 18.4072 64.2902 17.7832C66.5502 12.3932 68.9802 7.08316 71.3602 1.78316C72.2202 -0.146838 72.2302 -0.146838 74.5902 0.133162C73.5902 2.31316 72.6802 4.45316 71.7402 6.58316C69.6802 11.2232 67.5902 15.8332 65.6002 20.5032C65.481 20.9894 65.1837 21.4133 64.7671 21.691C64.3505 21.9688 63.8449 22.0801 63.3502 22.0032C58.5002 21.9232 53.6502 22.0032 48.8002 22.0032C47.8602 22.0032 47.5902 22.2932 47.4402 23.2032C46.8902 26.5932 46.2402 29.9732 45.6002 33.3532C45.2302 35.2432 45.2002 35.2432 42.9402 34.9032Z" fill="black"/>
<path d="M65.8902 34.8931C65.2402 32.4231 64.5402 29.8931 63.8902 27.3631C63.8783 27.1456 63.8201 26.9332 63.7195 26.7401C63.6189 26.5469 63.4782 26.3775 63.3069 26.243C63.1355 26.1086 62.9375 26.0123 62.7259 25.9606C62.5144 25.9089 62.2942 25.9029 62.0802 25.9431C58.0802 26.0231 54.1802 25.9431 50.2402 25.9431H48.8402C48.8402 23.7331 48.9302 23.6431 50.9202 23.6431C55.3402 23.6431 59.7602 23.6431 64.1802 23.6431C64.5902 23.6431 65.2802 23.9331 65.3602 24.2331C66.3602 27.6931 67.2402 31.2331 68.2002 34.8431L65.8902 34.8931Z" fill="black"/>
<path d="M57.3801 44.0832V41.2732C58.2641 41.3974 59.1368 41.5913 59.9901 41.8532C60.077 42.0589 60.1218 42.2799 60.1218 42.5032C60.1218 42.7265 60.077 42.9475 59.9901 43.1532C59.1465 43.5327 58.2737 43.8437 57.3801 44.0832Z" fill="white"/>
<path d="M3.35015 51.233C3.73117 51.8824 4.276 52.4203 4.93015 52.793C5.58509 53.1554 6.32165 53.3447 7.07015 53.343C7.61954 53.3507 8.16657 53.2696 8.69015 53.103C9.15355 52.9572 9.59194 52.7413 9.99015 52.463C10.3586 52.2045 10.6944 51.9023 10.9902 51.563V54.073C10.483 54.5038 9.90424 54.8423 9.28015 55.073C8.53704 55.3259 7.75483 55.4445 6.97015 55.423C6.08839 55.4284 5.21338 55.269 4.39015 54.953C3.60943 54.6547 2.9006 54.1946 2.31015 53.603C1.72249 53.0055 1.25712 52.2989 0.940152 51.523C0.273042 49.8401 0.273042 47.966 0.940152 46.283C1.26443 45.5062 1.73651 44.7998 2.33015 44.203C2.9206 43.6115 3.62943 43.1514 4.41015 42.853C5.23338 42.5371 6.10839 42.3777 6.99015 42.383C7.7742 42.3588 8.55633 42.4739 9.30015 42.723C9.92052 42.9616 10.498 43.2994 11.0102 43.723V46.243C10.7174 45.898 10.3812 45.5921 10.0102 45.333C9.60963 45.0587 9.17184 44.8432 8.71015 44.693C8.1849 44.5348 7.63868 44.4573 7.09015 44.463C6.33518 44.4498 5.59008 44.6361 4.93015 45.003C4.27681 45.3679 3.73169 45.8993 3.35015 46.543C2.95627 47.2619 2.7498 48.0684 2.7498 48.888C2.7498 49.7077 2.95627 50.5142 3.35015 51.233Z" fill="#231F20"/>
<path d="M18.7801 46.283C19.0917 45.5078 19.5617 44.8061 20.1601 44.223C20.756 43.6382 21.4633 43.1791 22.2401 42.873C23.9085 42.2201 25.7617 42.2201 27.4301 42.873C28.2076 43.1777 28.9151 43.637 29.5099 44.2232C30.1046 44.8093 30.5742 45.5101 30.8901 46.283C31.5297 47.9643 31.5297 49.8218 30.8901 51.503C30.586 52.292 30.1228 53.0099 29.5293 53.612C28.9357 54.2141 28.2246 54.6876 27.4401 55.003C25.764 55.6699 23.8962 55.6699 22.2201 55.003C21.4397 54.6948 20.7315 54.2283 20.1401 53.633C19.544 53.025 19.0809 52.2997 18.7801 51.503C18.1272 49.8243 18.1272 47.9618 18.7801 46.283ZM21.0901 51.203C21.4414 51.865 21.9671 52.4183 22.6101 52.803C23.2904 53.1768 24.054 53.3728 24.8301 53.3728C25.6063 53.3728 26.3699 53.1768 27.0501 52.803C27.6882 52.4153 28.2099 51.8625 28.5601 51.203C28.9336 50.4911 29.1227 49.6969 29.1101 48.893C29.1237 48.0903 28.9382 47.2966 28.5701 46.583C28.2232 45.9264 27.7004 45.3793 27.0601 45.003C26.3801 44.6229 25.6141 44.4234 24.8351 44.4234C24.0561 44.4234 23.2901 44.6229 22.6101 45.003C21.9648 45.3806 21.4382 45.9314 21.0901 46.593C20.7142 47.3041 20.5249 48.0989 20.5401 48.903C20.5244 49.7041 20.7138 50.4958 21.0901 51.203Z" fill="#231F20"/>
<path d="M40.3101 55.1932H38.1201L39.8501 42.0032L45.0101 50.5432L50.1901 42.0032L51.9201 55.2232H49.7201L48.8401 47.5632L45.0101 54.0032L41.1801 47.5332L40.3101 55.1932Z" fill="#231F20"/>
<path d="M61.4701 42.6033V55.1933H59.3801V42.6033H61.4701ZM60.7001 42.6033H66.3301V44.5033H60.7001V42.6033ZM60.7001 47.6033H66.1501V49.5033H60.7001V47.6033Z" fill="#231F20"/>
<path d="M73.9201 46.283C74.2317 45.5078 74.7017 44.8061 75.3001 44.223C75.8977 43.6403 76.6046 43.1815 77.3801 42.873C79.0485 42.2201 80.9018 42.2201 82.5701 42.873C83.3476 43.1777 84.0551 43.637 84.6499 44.2232C85.2446 44.8093 85.7142 45.5101 86.0301 46.283C86.6698 47.9643 86.6698 49.8218 86.0301 51.503C85.7261 52.292 85.2628 53.0099 84.6693 53.612C84.0758 54.2141 83.3646 54.6876 82.5801 55.003C80.904 55.6699 79.0362 55.6699 77.3601 55.003C76.5797 54.6948 75.8715 54.2283 75.2801 53.633C74.6921 53.0339 74.2297 52.3234 73.9201 51.543C73.2672 49.8643 73.2672 48.0018 73.9201 46.323V46.283ZM76.2301 51.203C76.5897 51.8689 77.126 52.4226 77.7801 52.803C78.4604 53.1768 79.224 53.3728 80.0001 53.3728C80.7763 53.3728 81.5399 53.1768 82.2201 52.803C82.8582 52.4153 83.3799 51.8625 83.7301 51.203C84.1036 50.4911 84.2927 49.6969 84.2801 48.893C84.2937 48.0903 84.1082 47.2966 83.7401 46.583C83.3878 45.9238 82.8578 45.3764 82.2101 45.003C81.532 44.6283 80.7699 44.4318 79.9951 44.4318C79.2204 44.4318 78.4583 44.6283 77.7801 45.003C77.1348 45.3806 76.6083 45.9314 76.2601 46.593C75.889 47.3059 75.7001 48.0995 75.7101 48.903C75.69 49.701 75.8686 50.4914 76.2301 51.203Z" fill="#231F20"/>
<path d="M96.1001 42.6032V55.1932H93.9801V42.6032H96.1001ZM95.2401 42.6032H97.8701C98.6892 42.5846 99.5022 42.7486 100.25 43.0832C100.877 43.3855 101.407 43.8564 101.78 44.4432C102.166 45.0595 102.361 45.7763 102.34 46.5032C102.36 47.2332 102.165 47.9529 101.78 48.5732C101.399 49.1712 100.854 49.6469 100.21 49.9432C99.4622 50.2779 98.6492 50.4418 97.8301 50.4232H95.2401V48.6832H97.7801C98.2142 48.6913 98.6447 48.6025 99.0401 48.4232C99.3896 48.2702 99.688 48.0203 99.9001 47.7032C100.108 47.3563 100.212 46.9573 100.2 46.5532C100.213 46.1489 100.109 45.7495 99.9001 45.4032C99.688 45.0861 99.3896 44.8363 99.0401 44.6832C98.6439 44.5074 98.2135 44.422 97.7801 44.4332H95.2401V42.6032ZM98.8701 49.1832L103.14 55.1832H100.58L96.5801 49.1832H98.8701Z" fill="#231F20"/>
<path d="M108.78 42.6033H117.56V44.6033H114.23V55.1933H112.09V44.5633H108.78V42.6033Z" fill="#231F20"/>
</svg>
