<svg width="24" height="24" viewBox="0 0 24 24" fill="none" xmlns="http://www.w3.org/2000/svg">
<path d="M11.1775 12.8225C11.4167 13.05 11.4167 13.4233 11.1775 13.6508C10.95 13.8783 10.5767 13.8783 10.3492 13.6508C9.80283 13.1036 9.49596 12.362 9.49596 11.5887C9.49596 10.8155 9.80283 10.0738 10.3492 9.52664L12.4142 7.46163C12.9614 6.91527 13.703 6.6084 14.4763 6.6084C15.2495 6.6084 15.9912 6.91527 16.5384 7.46163C17.0847 8.00882 17.3916 8.75046 17.3916 9.52372C17.3916 10.297 17.0847 11.0386 16.5384 11.5858L15.6692 12.455C15.675 11.9766 15.5992 11.4983 15.4359 11.0433L15.71 10.7633C15.8736 10.6015 16.0034 10.4089 16.092 10.1967C16.1806 9.9844 16.2262 9.75666 16.2262 9.52664C16.2262 9.29661 16.1806 9.06887 16.092 8.8566C16.0034 8.64433 15.8736 8.45173 15.71 8.28997C15.5483 8.12644 15.3557 7.99662 15.1434 7.90801C14.9311 7.81941 14.7034 7.77379 14.4734 7.77379C14.2433 7.77379 14.0156 7.81941 13.8033 7.90801C13.5911 7.99662 13.3985 8.12644 13.2367 8.28997L11.1775 10.3491C11.014 10.5109 10.8842 10.7035 10.7956 10.9158C10.707 11.128 10.6614 11.3558 10.6614 11.5858C10.6614 11.8158 10.707 12.0436 10.7956 12.2558C10.8842 12.4681 11.014 12.6607 11.1775 12.8225ZM12.8225 10.3491C13.05 10.1216 13.4234 10.1216 13.6509 10.3491C14.1972 10.8963 14.5041 11.638 14.5041 12.4112C14.5041 13.1845 14.1972 13.9261 13.6509 14.4733L11.5859 16.5383C11.0387 17.0847 10.297 17.3915 9.52378 17.3915C8.75053 17.3915 8.00888 17.0847 7.4617 16.5383C6.91533 15.9911 6.60846 15.2495 6.60846 14.4762C6.60846 13.703 6.91533 12.9613 7.4617 12.4141L8.33086 11.545C8.32503 12.0233 8.40086 12.5016 8.5642 12.9625L8.29003 13.2366C8.1265 13.3984 7.99668 13.591 7.90807 13.8033C7.81947 14.0155 7.77385 14.2433 7.77385 14.4733C7.77385 14.7033 7.81947 14.9311 7.90807 15.1433C7.99668 15.3556 8.1265 15.5482 8.29003 15.71C8.4518 15.8735 8.64439 16.0033 8.85666 16.0919C9.06894 16.1805 9.29667 16.2261 9.5267 16.2261C9.75672 16.2261 9.98446 16.1805 10.1967 16.0919C10.409 16.0033 10.6016 15.8735 10.7634 15.71L12.8225 13.6508C12.9861 13.489 13.1159 13.2964 13.2045 13.0842C13.2931 12.8719 13.3387 12.6442 13.3387 12.4141C13.3387 12.1841 13.2931 11.9564 13.2045 11.7441C13.1159 11.5318 12.9861 11.3392 12.8225 11.1775C12.7659 11.1244 12.7207 11.0602 12.6898 10.989C12.659 10.9178 12.643 10.8409 12.643 10.7633C12.643 10.6857 12.659 10.6088 12.6898 10.5376C12.7207 10.4664 12.7659 10.4022 12.8225 10.3491Z" fill="black"/>
</svg>
