<svg width="10" height="14" viewBox="0 0 10 14" fill="none" xmlns="http://www.w3.org/2000/svg">
<path d="M9.46874 4.25016C9.46874 2.1785 7.86457 0.583496 5.80207 0.583496H0.0729065V13.4168H6.52624C8.44207 13.4168 9.92707 11.8585 9.92707 9.94266C9.92707 8.54933 9.13874 7.35766 7.95624 6.80766C8.84541 6.1935 9.46874 5.18516 9.46874 4.25016ZM2.82291 2.87516H5.57291C6.33374 2.87516 6.94791 3.48933 6.94791 4.25016C6.94791 5.011 6.33374 5.62516 5.57291 5.62516H2.82291V2.87516ZM6.03124 11.1252H2.82291V8.37516H6.03124C6.79207 8.37516 7.40624 8.98933 7.40624 9.75016C7.40624 10.511 6.79207 11.1252 6.03124 11.1252Z" fill="#202020"/>
</svg>
