<svg width="16" height="10" viewBox="0 0 16 10" fill="none" xmlns="http://www.w3.org/2000/svg">
<path fill-rule="evenodd" clip-rule="evenodd" d="M1.43934 2.48757C1.66147 2.48757 1.8745 2.39933 2.03156 2.24226C2.18863 2.08519 2.27687 1.87216 2.27687 1.65003C2.27687 1.42791 2.18863 1.21488 2.03156 1.05781C1.8745 0.90074 1.66147 0.8125 1.43934 0.8125C1.21721 0.8125 1.00418 0.90074 0.847114 1.05781C0.690046 1.21488 0.601807 1.42791 0.601807 1.65003C0.601807 1.87216 0.690046 2.08519 0.847114 2.24226C1.00418 2.39933 1.21721 2.48757 1.43934 2.48757ZM4.23111 1.65003C4.23111 1.50195 4.28994 1.35993 4.39465 1.25522C4.49936 1.1505 4.64138 1.09168 4.78947 1.09168H14.8399C14.9879 1.09168 15.13 1.1505 15.2347 1.25522C15.3394 1.35993 15.3982 1.50195 15.3982 1.65003C15.3982 1.79812 15.3394 1.94014 15.2347 2.04485C15.13 2.14956 14.9879 2.20839 14.8399 2.20839H4.78947C4.64138 2.20839 4.49936 2.14956 4.39465 2.04485C4.28994 1.94014 4.23111 1.79812 4.23111 1.65003ZM4.78947 4.44181C4.64138 4.44181 4.49936 4.50063 4.39465 4.60535C4.28994 4.71006 4.23111 4.85208 4.23111 5.00016C4.23111 5.14825 4.28994 5.29027 4.39465 5.39498C4.49936 5.49969 4.64138 5.55852 4.78947 5.55852H14.8399C14.9879 5.55852 15.13 5.49969 15.2347 5.39498C15.3394 5.29027 15.3982 5.14825 15.3982 5.00016C15.3982 4.85208 15.3394 4.71006 15.2347 4.60535C15.13 4.50063 14.9879 4.44181 14.8399 4.44181H4.78947ZM4.78947 7.79194C4.64138 7.79194 4.49936 7.85076 4.39465 7.95548C4.28994 8.06019 4.23111 8.20221 4.23111 8.35029C4.23111 8.49838 4.28994 8.6404 4.39465 8.74511C4.49936 8.84982 4.64138 8.90865 4.78947 8.90865H14.8399C14.9879 8.90865 15.13 8.84982 15.2347 8.74511C15.3394 8.6404 15.3982 8.49838 15.3982 8.35029C15.3982 8.20221 15.3394 8.06019 15.2347 7.95548C15.13 7.85076 14.9879 7.79194 14.8399 7.79194H4.78947ZM2.27687 5.00016C2.27687 5.22229 2.18863 5.43532 2.03156 5.59239C1.8745 5.74945 1.66147 5.8377 1.43934 5.8377C1.21721 5.8377 1.00418 5.74945 0.847114 5.59239C0.690046 5.43532 0.601807 5.22229 0.601807 5.00016C0.601807 4.77804 0.690046 4.56501 0.847114 4.40794C1.00418 4.25087 1.21721 4.16263 1.43934 4.16263C1.66147 4.16263 1.8745 4.25087 2.03156 4.40794C2.18863 4.56501 2.27687 4.77804 2.27687 5.00016ZM1.43934 9.18783C1.66147 9.18783 1.8745 9.09959 2.03156 8.94252C2.18863 8.78545 2.27687 8.57242 2.27687 8.35029C2.27687 8.12817 2.18863 7.91514 2.03156 7.75807C1.8745 7.601 1.66147 7.51276 1.43934 7.51276C1.21721 7.51276 1.00418 7.601 0.847114 7.75807C0.690046 7.91514 0.601807 8.12817 0.601807 8.35029C0.601807 8.57242 0.690046 8.78545 0.847114 8.94252C1.00418 9.09959 1.21721 9.18783 1.43934 9.18783Z" fill="#202020"/>
</svg>
