<svg width="24" height="24" viewBox="0 0 24 24" fill="none" xmlns="http://www.w3.org/2000/svg">
<path d="M15.7208 15.9749C15.5757 16.1124 15.3944 16.1812 15.177 16.1812C14.959 16.1812 14.7708 16.1062 14.6125 15.9562C14.4542 15.8062 14.375 15.6279 14.375 15.4214C14.375 15.2154 14.4542 15.0374 14.6125 14.8874L17.6802 11.9812L14.5927 9.05619C14.4476 8.91869 14.3782 8.74669 14.3845 8.54019C14.3914 8.33419 14.4674 8.16244 14.6125 8.02494C14.7576 7.88744 14.9424 7.81869 15.1667 7.81869C15.391 7.81869 15.5757 7.88744 15.7208 8.02494L19.3625 11.4749C19.5208 11.6249 19.6 11.7999 19.6 11.9999C19.6 12.1999 19.5208 12.3749 19.3625 12.5249L15.7208 15.9749ZM8.27916 15.9749L4.63749 12.5249C4.47916 12.3749 4.39999 12.1999 4.39999 11.9999C4.39999 11.7999 4.47916 11.6249 4.63749 11.4749L8.27916 8.02494C8.4243 7.88744 8.60902 7.81544 8.83333 7.80894C9.05763 7.80294 9.24895 7.87494 9.40729 8.02494C9.56562 8.17494 9.64479 8.35294 9.64479 8.55894C9.64479 8.76544 9.56562 8.94369 9.40729 9.09369L6.31979 12.0187L9.40729 14.9437C9.55242 15.0812 9.62183 15.2529 9.61549 15.4589C9.60863 15.6654 9.53263 15.8374 9.38749 15.9749C9.24235 16.1124 9.05763 16.1812 8.83333 16.1812C8.60902 16.1812 8.4243 16.1124 8.27916 15.9749Z" fill="black"/>
</svg>
