<svg width="24" height="24" viewBox="0 0 24 24" fill="none" xmlns="http://www.w3.org/2000/svg">
<path d="M11.1833 12.8166C11.2676 12.9289 11.3085 13.0678 11.2985 13.2079C11.2886 13.348 11.2284 13.4797 11.1292 13.579C11.0299 13.6783 10.8981 13.7385 10.758 13.7484C10.618 13.7584 10.479 13.7175 10.3667 13.6332C10.0877 13.3714 9.86529 13.0551 9.71327 12.7039C9.56125 12.3528 9.48282 11.9742 9.48282 11.5916C9.48282 11.2089 9.56125 10.8303 9.71327 10.4792C9.86529 10.128 10.0877 9.81175 10.3667 9.54989L12.4083 7.44989C12.9634 6.91177 13.7061 6.61084 14.4792 6.61084C15.2523 6.61084 15.995 6.91177 16.55 7.44989C17.0881 8.00493 17.3891 8.74765 17.3891 9.52073C17.3891 10.2938 17.0881 11.0365 16.55 11.5916L15.675 12.4666C15.6875 11.9893 15.6083 11.514 15.4417 11.0666L15.7333 10.7749C16.0449 10.4315 16.2174 9.98439 16.2174 9.52073C16.2174 9.05706 16.0449 8.60998 15.7333 8.26656C15.3899 7.95503 14.9429 7.78247 14.4792 7.78247C14.0155 7.78247 13.5684 7.95503 13.225 8.26656L11.1833 10.3666C11.0174 10.5246 10.8854 10.7146 10.7951 10.9252C10.7049 11.1358 10.6583 11.3625 10.6583 11.5916C10.6583 11.8207 10.7049 12.0474 10.7951 12.2579C10.8854 12.4685 11.0174 12.6586 11.1833 12.8166ZM14.45 12.9916C14.5511 12.5207 14.5291 12.0318 14.386 11.5719C14.243 11.1121 13.9837 10.6969 13.6333 10.3666C13.521 10.2823 13.3821 10.2414 13.242 10.2514C13.1019 10.2613 12.9702 10.3215 12.8709 10.4207C12.7716 10.52 12.7114 10.6518 12.7015 10.7919C12.6915 10.9319 12.7324 11.0709 12.8167 11.1832C12.9826 11.3412 13.1147 11.5313 13.2049 11.7418C13.2951 11.9524 13.3417 12.1791 13.3417 12.4082C13.3417 12.6373 13.2951 12.864 13.2049 13.0746C13.1147 13.2852 12.9826 13.4752 12.8167 13.6332L10.775 15.7332C10.4316 16.0448 9.98452 16.2173 9.52085 16.2173C9.05718 16.2173 8.6101 16.0448 8.26668 15.7332C7.95515 15.3898 7.78259 14.9427 7.78259 14.4791C7.78259 14.0154 7.95515 13.5683 8.26668 13.2249L8.55835 12.9916C8.39622 12.5227 8.31726 12.0292 8.32501 11.5332L7.45001 12.4082C6.91189 12.9633 6.61096 13.706 6.61096 14.4791C6.61096 15.2521 6.91189 15.9948 7.45001 16.5499C8.00506 17.088 8.74777 17.3889 9.52085 17.3889C10.2939 17.3889 11.0366 17.088 11.5917 16.5499L12.6417 15.4999C12.7308 14.9712 12.9403 14.4701 13.2538 14.0352C13.5674 13.6003 13.9766 13.2432 14.45 12.9916ZM17.3083 14.0416L16.0833 15.2666L14.8583 14.0416L14.0417 14.8582L15.2667 16.0832L14.0417 17.3082L14.8583 18.1249L16.0833 16.8999L17.3083 18.1249L18.125 17.3082L16.9 16.0832L18.125 14.8582L17.3083 14.0416Z" fill="black"/>
</svg>
