<svg width="24" height="24" viewBox="0 0 24 24" fill="none" xmlns="http://www.w3.org/2000/svg">
<path d="M7.58334 10.5835C7.3389 10.5835 7.15001 10.4978 7.01667 10.3264C6.88334 10.155 6.85001 9.95143 6.91667 9.71579C7.21667 8.72412 7.76667 7.91237 8.56667 7.28054C9.36667 6.64871 10.2889 6.33303 11.3333 6.3335C11.9889 6.3335 12.6029 6.46643 13.1753 6.73229C13.7478 6.99815 14.2449 7.36105 14.6667 7.821V7.04183C14.6667 6.84114 14.7307 6.67279 14.8587 6.53679C14.9867 6.40079 15.1449 6.33303 15.3333 6.3335C15.5222 6.3335 15.6807 6.4015 15.8087 6.5375C15.9367 6.6735 16.0005 6.84161 16 7.04183V9.87517C16 10.0759 15.936 10.2442 15.808 10.3802C15.68 10.5162 15.5218 10.584 15.3333 10.5835H12.6667C12.4778 10.5835 12.3193 10.5155 12.1913 10.3795C12.0633 10.2435 11.9996 10.0754 12 9.87517C12 9.67447 12.064 9.50612 12.192 9.37012C12.32 9.23412 12.4782 9.16636 12.6667 9.16683H14C13.6778 8.74183 13.2916 8.39947 12.8413 8.13975C12.3911 7.88003 11.8885 7.75017 11.3333 7.75017C10.6111 7.75017 9.96112 7.96857 9.38334 8.40537C8.80556 8.84218 8.40556 9.40885 8.18334 10.1054C8.1389 10.247 8.06112 10.3623 7.95001 10.451C7.8389 10.5398 7.71667 10.584 7.58334 10.5835ZM16.6 17.8793L14.1333 15.2585C13.7333 15.5772 13.2973 15.8223 12.8253 15.9937C12.3533 16.1652 11.856 16.2506 11.3333 16.2502C10.6778 16.2502 10.0638 16.1172 9.49134 15.8514C8.9189 15.5855 8.42179 15.2226 8.00001 14.7627V15.5418C8.00001 15.7425 7.93601 15.9109 7.80801 16.0469C7.68001 16.1829 7.52179 16.2506 7.33334 16.2502C7.14445 16.2502 6.98601 16.1822 6.85801 16.0462C6.73001 15.9102 6.66623 15.7421 6.66667 15.5418V12.7085C6.66667 12.5078 6.73067 12.3395 6.85867 12.2035C6.98667 12.0675 7.1449 11.9997 7.33334 12.0002H10C10.1889 12.0002 10.3473 12.0682 10.4753 12.2042C10.6033 12.3402 10.6671 12.5083 10.6667 12.7085C10.6667 12.9092 10.6027 13.0775 10.4747 13.2135C10.3467 13.3495 10.1885 13.4173 10 13.4168H8.66667C8.9889 13.8418 9.37512 14.1842 9.82534 14.4439C10.2756 14.7036 10.7782 14.8335 11.3333 14.8335C12.0556 14.8335 12.7056 14.6151 13.2833 14.1783C13.8611 13.7415 14.2611 13.1748 14.4833 12.4783C14.5278 12.3366 14.6056 12.2214 14.7167 12.1326C14.8278 12.0438 14.95 11.9997 15.0833 12.0002C15.3278 12.0002 15.5167 12.0887 15.65 12.2658C15.7833 12.4429 15.8167 12.6495 15.75 12.8856C15.6722 13.1335 15.5778 13.3724 15.4667 13.6024C15.3556 13.8324 15.2222 14.0539 15.0667 14.2668L17.5333 16.8877C17.6556 17.0175 17.7167 17.1828 17.7167 17.3835C17.7167 17.5842 17.6556 17.7495 17.5333 17.8793C17.4111 18.0092 17.2556 18.0741 17.0667 18.0741C16.8778 18.0741 16.7222 18.0092 16.6 17.8793Z" fill="black"/>
</svg>
