<svg width="12" height="14" viewBox="0 0 12 14" fill="none" xmlns="http://www.w3.org/2000/svg">
<path d="M2.153 0.780744C2.32472 0.820783 2.44662 0.967592 2.44662 1.13843V4.06928C2.44569 4.11836 2.43511 4.16677 2.41547 4.21176C2.39583 4.25675 2.36752 4.29742 2.33215 4.33146C2.29679 4.3655 2.25507 4.39225 2.20936 4.41016C2.16366 4.42807 2.11488 4.43681 2.0658 4.43586C2.01673 4.43681 1.96795 4.42807 1.92224 4.41016C1.87654 4.39225 1.83482 4.3655 1.79946 4.33146C1.76409 4.29742 1.73578 4.25675 1.71614 4.21176C1.6965 4.16677 1.68591 4.11836 1.68499 4.06928V2.17766C1.5054 2.33138 1.30685 2.46146 1.09419 2.56471C1.00436 2.60843 0.901122 2.61582 0.805983 2.58532C0.710844 2.55482 0.631138 2.48879 0.583471 2.40099C0.561418 2.35771 0.548342 2.31042 0.545029 2.26196C0.541716 2.21351 0.548233 2.16488 0.56419 2.119C0.580147 2.07312 0.605214 2.03095 0.637884 1.99501C0.670555 1.95906 0.710154 1.9301 0.754304 1.90984C1.06839 1.75859 1.31396 1.52547 1.4839 1.32172C1.57329 1.21341 1.65364 1.09794 1.72414 0.97649C1.76465 0.901704 1.82843 0.842147 1.9058 0.806829C1.98318 0.771511 2.06996 0.762355 2.153 0.780744ZM0.791674 6.16021C0.756511 6.12687 0.728507 6.08672 0.70937 6.04221C0.690233 5.99769 0.680364 5.94975 0.680364 5.90129C0.680364 5.85284 0.690233 5.80489 0.70937 5.76038C0.728507 5.71586 0.756511 5.67571 0.791674 5.64237L0.793453 5.64148V5.63881L0.797012 5.63703L0.80413 5.62992C0.833172 5.60321 0.863774 5.57825 0.895775 5.55518C1.23345 5.30392 1.64312 5.16819 2.06403 5.16813H2.07025C2.35498 5.17169 2.66461 5.24287 2.91285 5.41993C3.17533 5.60678 3.34438 5.89684 3.34438 6.26609C3.34438 6.66826 3.1602 6.94853 2.91018 7.14873C2.71978 7.30266 2.4742 7.41833 2.2749 7.51264C2.24287 7.52688 2.21261 7.542 2.18325 7.55624C1.94569 7.67013 1.76685 7.76978 1.6405 7.90324C1.58584 7.96038 1.54157 8.02662 1.50971 8.09899H2.96446C3.06327 8.09732 3.15872 8.13486 3.22992 8.20339C3.30113 8.27193 3.34228 8.36587 3.34438 8.46468C3.34346 8.51376 3.33287 8.56217 3.31323 8.60716C3.29359 8.65214 3.26528 8.69282 3.22992 8.72686C3.19455 8.7609 3.15283 8.78764 3.10713 8.80555C3.06143 8.82347 3.01265 8.8322 2.96357 8.83126H1.06127C1.01219 8.8322 0.963411 8.82347 0.91771 8.80555C0.872009 8.78764 0.830285 8.7609 0.794921 8.72686C0.759558 8.69282 0.731247 8.65214 0.711606 8.60716C0.691965 8.56217 0.68138 8.51376 0.680454 8.46468C0.680454 8.0109 0.831713 7.67013 1.07729 7.41121C1.30773 7.16652 1.60402 7.01527 1.84248 6.90049C1.88074 6.88269 1.91811 6.8649 1.95281 6.8471C2.15834 6.74923 2.30871 6.67805 2.42349 6.5864C2.53026 6.5001 2.58364 6.41468 2.58364 6.26609C2.58364 6.13441 2.53293 6.06145 2.45908 6.00895C2.33952 5.93493 2.20104 5.89722 2.06047 5.9004C1.79582 5.90166 1.53935 5.99227 1.33265 6.15754L1.3282 6.16199C1.25529 6.22969 1.15934 6.26709 1.05985 6.2666C0.960361 6.2661 0.864792 6.22774 0.792563 6.15932L0.791674 6.16021ZM1.62804 11.3964C1.62992 11.2975 1.67097 11.2033 1.7422 11.1346C1.81342 11.0658 1.90901 11.0282 2.00797 11.0298C2.26956 11.0298 2.4137 10.9587 2.48577 10.8964C2.51786 10.8699 2.5434 10.8364 2.56038 10.7984C2.57736 10.7605 2.58532 10.7191 2.58364 10.6775C2.5783 10.5351 2.44306 10.2976 2.00797 10.2976C1.69478 10.2976 1.53195 10.3723 1.4581 10.4195C1.43308 10.4346 1.41031 10.4532 1.39048 10.4746L1.38781 10.4782C1.3909 10.4729 1.39387 10.4676 1.39671 10.4622V10.4631L1.39493 10.4649L1.39315 10.4684L1.39048 10.4746L1.38603 10.4809L1.38781 10.4782C1.33754 10.5606 1.25836 10.6213 1.16573 10.6485C1.0731 10.6756 0.973673 10.6672 0.886877 10.625C0.842805 10.6047 0.803294 10.5756 0.770716 10.5397C0.738138 10.5037 0.713165 10.4615 0.697294 10.4156C0.681422 10.3698 0.674981 10.3212 0.678356 10.2727C0.681731 10.2243 0.694853 10.1771 0.716934 10.1339V10.1321L0.718714 10.1294L0.721383 10.1241L0.728501 10.1125C0.750508 10.0743 0.776452 10.0385 0.80591 10.0057C0.857516 9.94612 0.932255 9.87583 1.03636 9.80999C1.24812 9.67386 1.56131 9.56442 2.00797 9.56442C2.79096 9.56442 3.32214 10.0591 3.34438 10.6499C3.35506 10.9195 3.25541 11.1891 3.04276 11.3973C3.25452 11.6037 3.35506 11.8733 3.34527 12.1429C3.32214 12.7337 2.79185 13.2284 2.00797 13.2284C1.56131 13.2284 1.24812 13.1199 1.03636 12.9838C0.923174 12.9116 0.82474 12.8186 0.746296 12.7097C0.740099 12.7001 0.734165 12.6903 0.728501 12.6803L0.721383 12.6688L0.718714 12.6643L0.717824 12.6617L0.716934 12.6599C0.69468 12.6167 0.681398 12.5694 0.677886 12.5209C0.674374 12.4725 0.680705 12.4238 0.696498 12.3778C0.712292 12.3318 0.73722 12.2895 0.769785 12.2535C0.802349 12.2174 0.841876 12.1883 0.885988 12.1678C0.972879 12.1253 1.07251 12.1168 1.16535 12.144C1.25818 12.1712 1.33752 12.232 1.38781 12.3147L1.39048 12.3182C1.39938 12.3271 1.41984 12.3494 1.4581 12.3743C1.53195 12.4214 1.69478 12.4962 2.00797 12.4962C2.44306 12.4962 2.5783 12.2577 2.58453 12.1153C2.58607 12.0739 2.57804 12.0327 2.56107 11.9949C2.54409 11.9571 2.51863 11.9237 2.48666 11.8974C2.4137 11.8333 2.26956 11.763 2.00797 11.763C1.90901 11.7647 1.81342 11.727 1.7422 11.6583C1.67097 11.5896 1.62992 11.4954 1.62804 11.3964ZM5.77075 2.55136C5.59377 2.55136 5.42403 2.62166 5.29889 2.74681C5.17374 2.87196 5.10343 3.04169 5.10343 3.21868C5.10343 3.39566 5.17374 3.56539 5.29889 3.69054C5.42403 3.81569 5.59377 3.88599 5.77075 3.88599H10.6644C10.8414 3.88599 11.0111 3.81569 11.1363 3.69054C11.2614 3.56539 11.3317 3.39566 11.3317 3.21868C11.3317 3.04169 11.2614 2.87196 11.1363 2.74681C11.0111 2.62166 10.8414 2.55136 10.6644 2.55136H5.77075ZM5.77075 6.11038C5.59377 6.11038 5.42403 6.18069 5.29889 6.30584C5.17374 6.43098 5.10343 6.60072 5.10343 6.7777C5.10343 6.95468 5.17374 7.12442 5.29889 7.24957C5.42403 7.37471 5.59377 7.44502 5.77075 7.44502H10.6644C10.8414 7.44502 11.0111 7.37471 11.1363 7.24957C11.2614 7.12442 11.3317 6.95468 11.3317 6.7777C11.3317 6.60072 11.2614 6.43098 11.1363 6.30584C11.0111 6.18069 10.8414 6.11038 10.6644 6.11038H5.77075ZM5.77075 9.66941C5.59377 9.66941 5.42403 9.73972 5.29889 9.86486C5.17374 9.99001 5.10343 10.1597 5.10343 10.3367C5.10343 10.5137 5.17374 10.6834 5.29889 10.8086C5.42403 10.9337 5.59377 11.004 5.77075 11.004H10.6644C10.8414 11.004 11.0111 10.9337 11.1363 10.8086C11.2614 10.6834 11.3317 10.5137 11.3317 10.3367C11.3317 10.1597 11.2614 9.99001 11.1363 9.86486C11.0111 9.73972 10.8414 9.66941 10.6644 9.66941H5.77075Z" fill="black"/>
</svg>
