<svg width="24" height="24" viewBox="0 0 24 24" fill="none" xmlns="http://www.w3.org/2000/svg">
<path d="M16.3266 8.89625C16.9274 9.53441 17.25 10.2502 17.25 11.4104C17.25 13.4521 15.8168 15.282 13.7325 16.1867L13.2116 15.3829C15.157 14.3306 15.5373 12.965 15.689 12.104C15.3758 12.2662 14.9657 12.3227 14.5638 12.2854C13.5114 12.188 12.6819 11.3241 12.6819 10.2502C12.6819 9.70868 12.897 9.18937 13.2799 8.80649C13.6628 8.4236 14.1821 8.2085 14.7236 8.2085C15.3495 8.2085 15.948 8.49433 16.3266 8.89625ZM10.4933 8.89625C11.0941 9.53441 11.4167 10.2502 11.4167 11.4104C11.4167 13.4521 9.98343 15.282 7.89918 16.1867L7.37827 15.3829C9.32368 14.3306 9.70402 12.965 9.85568 12.104C9.54243 12.2662 9.13235 12.3227 8.73043 12.2854C7.6781 12.188 6.84918 11.3241 6.84918 10.2502C6.84918 9.70868 7.06429 9.18937 7.44717 8.80649C7.83006 8.4236 8.34937 8.2085 8.89085 8.2085C9.51677 8.2085 10.1153 8.49433 10.4938 8.89625H10.4933Z" fill="black"/>
</svg>
