<svg width="24" height="24" viewBox="0 0 24 24" fill="none" xmlns="http://www.w3.org/2000/svg">
<path d="M14.3333 16.0831C14.4986 16.0831 14.6373 16.0271 14.7493 15.9151C14.8613 15.8031 14.9171 15.6647 14.9167 15.4998C14.9167 15.3345 14.8607 15.1959 14.7487 15.0839C14.6367 14.9719 14.4982 14.9161 14.3333 14.9165H10.775C10.1625 14.9165 9.63011 14.722 9.17784 14.3331C8.72556 13.9442 8.49961 13.4581 8.5 12.8748C8.5 12.2915 8.72614 11.8054 9.17842 11.4165C9.6307 11.0276 10.1629 10.8331 10.775 10.8331H14.45L13.3417 11.9415C13.2347 12.0484 13.1813 12.1845 13.1813 12.3498C13.1813 12.5151 13.2347 12.6512 13.3417 12.7581C13.4486 12.8651 13.5847 12.9186 13.75 12.9186C13.9153 12.9186 14.0514 12.8651 14.1583 12.7581L16.2583 10.6581C16.3167 10.5998 16.3581 10.5366 16.3826 10.4686C16.4071 10.4005 16.4191 10.3276 16.4188 10.2498C16.4188 10.172 16.4065 10.0991 16.382 10.0311C16.3575 9.963 16.3163 9.8998 16.2583 9.84147L14.1583 7.74147C14.0514 7.63453 13.9153 7.58105 13.75 7.58105C13.5847 7.58105 13.4486 7.63453 13.3417 7.74147C13.2347 7.84842 13.1813 7.98453 13.1813 8.1498C13.1813 8.31508 13.2347 8.45119 13.3417 8.55814L14.45 9.66647H10.775C9.83195 9.66647 9.02247 9.97272 8.34659 10.5852C7.6707 11.1977 7.33295 11.9609 7.33334 12.8748C7.33334 13.7887 7.67128 14.5519 8.34717 15.1644C9.02306 15.7769 9.83234 16.0831 10.775 16.0831H14.3333Z" fill="black"/>
</svg>
