<svg width="24" height="24" viewBox="0 0 24 24" fill="none" xmlns="http://www.w3.org/2000/svg">
<g clip-path="url(#clip0_1440_4742)">
<path d="M6.68066 4.42773V7.97227H7.27227C7.27227 7.38066 7.27227 6.2 7.86387 5.6084C8.45293 5.0168 9.04453 5.0168 9.63613 5.0168H10.8168V15.0613C10.8168 15.9475 10.5223 16.8336 9.63613 16.8336H9.05723L9.04453 17.4227H14.9529V16.8311H14.3613C13.4752 16.8311 13.1807 15.9449 13.1807 15.0588V5.01934H14.3613C14.9529 5.01934 15.542 5.01934 16.1336 5.61094C16.7252 6.20254 16.7252 7.3832 16.7252 7.9748H17.3168V4.42773H6.68066Z" fill="black"/>
</g>
<mask id="path-3-outside-1_1440_4742" maskUnits="userSpaceOnUse" x="11.4744" y="14.2734" width="7" height="7" fill="black">
<rect fill="white" x="11.4744" y="14.2734" width="7" height="7"/>
<path d="M16.6777 15.3719C16.6476 15.3417 16.6117 15.3177 16.5723 15.3013C16.5329 15.285 16.4906 15.2766 16.4479 15.2766C16.4052 15.2766 16.3629 15.285 16.3235 15.3013C16.284 15.3177 16.2482 15.3417 16.218 15.3719L14.6237 16.963L13.0294 15.3686C12.9992 15.3385 12.9633 15.3145 12.9239 15.2982C12.8845 15.2818 12.8422 15.2734 12.7995 15.2734C12.7568 15.2734 12.7145 15.2818 12.6751 15.2982C12.6357 15.3145 12.5998 15.3385 12.5696 15.3686C12.5395 15.3988 12.5155 15.4347 12.4992 15.4741C12.4828 15.5135 12.4744 15.5558 12.4744 15.5985C12.4744 15.6412 12.4828 15.6835 12.4992 15.7229C12.5155 15.7623 12.5395 15.7982 12.5696 15.8284L14.164 17.4227L12.5696 19.017C12.5395 19.0472 12.5155 19.0831 12.4992 19.1225C12.4828 19.1619 12.4744 19.2042 12.4744 19.2469C12.4744 19.2896 12.4828 19.3319 12.4992 19.3713C12.5155 19.4107 12.5395 19.4466 12.5696 19.4767C12.5998 19.5069 12.6357 19.5309 12.6751 19.5472C12.7145 19.5636 12.7568 19.572 12.7995 19.572C12.8422 19.572 12.8845 19.5636 12.9239 19.5472C12.9633 19.5309 12.9992 19.5069 13.0294 19.4767L14.6237 17.8824L16.218 19.4767C16.2482 19.5069 16.284 19.5309 16.3235 19.5472C16.3629 19.5636 16.4052 19.572 16.4479 19.572C16.4906 19.572 16.5328 19.5636 16.5723 19.5472C16.6117 19.5309 16.6476 19.5069 16.6777 19.4767C16.7079 19.4466 16.7319 19.4107 16.7482 19.3713C16.7645 19.3319 16.7729 19.2896 16.7729 19.2469C16.7729 19.2042 16.7645 19.1619 16.7482 19.1225C16.7319 19.0831 16.7079 19.0472 16.6777 19.017L15.0834 17.4227L16.6777 15.8284C16.8016 15.7045 16.8016 15.4958 16.6777 15.3719Z"/>
</mask>
<path d="M16.6777 15.3719C16.6476 15.3417 16.6117 15.3177 16.5723 15.3013C16.5329 15.285 16.4906 15.2766 16.4479 15.2766C16.4052 15.2766 16.3629 15.285 16.3235 15.3013C16.284 15.3177 16.2482 15.3417 16.218 15.3719L14.6237 16.963L13.0294 15.3686C12.9992 15.3385 12.9633 15.3145 12.9239 15.2982C12.8845 15.2818 12.8422 15.2734 12.7995 15.2734C12.7568 15.2734 12.7145 15.2818 12.6751 15.2982C12.6357 15.3145 12.5998 15.3385 12.5696 15.3686C12.5395 15.3988 12.5155 15.4347 12.4992 15.4741C12.4828 15.5135 12.4744 15.5558 12.4744 15.5985C12.4744 15.6412 12.4828 15.6835 12.4992 15.7229C12.5155 15.7623 12.5395 15.7982 12.5696 15.8284L14.164 17.4227L12.5696 19.017C12.5395 19.0472 12.5155 19.0831 12.4992 19.1225C12.4828 19.1619 12.4744 19.2042 12.4744 19.2469C12.4744 19.2896 12.4828 19.3319 12.4992 19.3713C12.5155 19.4107 12.5395 19.4466 12.5696 19.4767C12.5998 19.5069 12.6357 19.5309 12.6751 19.5472C12.7145 19.5636 12.7568 19.572 12.7995 19.572C12.8422 19.572 12.8845 19.5636 12.9239 19.5472C12.9633 19.5309 12.9992 19.5069 13.0294 19.4767L14.6237 17.8824L16.218 19.4767C16.2482 19.5069 16.284 19.5309 16.3235 19.5472C16.3629 19.5636 16.4052 19.572 16.4479 19.572C16.4906 19.572 16.5328 19.5636 16.5723 19.5472C16.6117 19.5309 16.6476 19.5069 16.6777 19.4767C16.7079 19.4466 16.7319 19.4107 16.7482 19.3713C16.7645 19.3319 16.7729 19.2896 16.7729 19.2469C16.7729 19.2042 16.7645 19.1619 16.7482 19.1225C16.7319 19.0831 16.7079 19.0472 16.6777 19.017L15.0834 17.4227L16.6777 15.8284C16.8016 15.7045 16.8016 15.4958 16.6777 15.3719Z" fill="black"/>
<path d="M16.6777 15.3719L15.9699 16.0783L15.9706 16.079L16.6777 15.3719ZM16.4479 15.2766V14.2766V15.2766ZM16.218 15.3719L16.9244 16.0797L16.9259 16.0783L16.218 15.3719ZM14.6237 16.963L13.9166 17.6701L14.623 18.3765L15.3301 17.6708L14.6237 16.963ZM13.0294 15.3686L13.7365 14.6615L13.7365 14.6615L13.0294 15.3686ZM12.7995 15.2734V16.2734V15.2734ZM12.4744 15.5985L11.4744 15.5985L12.4744 15.5985ZM12.5696 15.8284L11.8625 16.5355L11.8625 16.5355L12.5696 15.8284ZM14.164 17.4227L14.8711 18.1298L15.5782 17.4227L14.8711 16.7156L14.164 17.4227ZM12.5696 19.017L11.8625 18.3099L11.8625 18.3099L12.5696 19.017ZM12.4744 19.2469H13.4744H12.4744ZM13.0294 19.4767L12.3222 18.7696H12.3222L13.0294 19.4767ZM14.6237 17.8824L15.3308 17.1753L14.6237 16.4682L13.9166 17.1753L14.6237 17.8824ZM16.218 19.4767L15.5109 20.1839L16.218 19.4767ZM16.6777 19.017L17.3848 18.3099L16.6777 19.017ZM15.0834 17.4227L14.3763 16.7156L13.6692 17.4227L14.3763 18.1298L15.0834 17.4227ZM16.6777 15.8284L15.9706 15.1213V15.1213L16.6777 15.8284ZM17.3856 14.6655C17.2625 14.5422 17.1164 14.4444 16.9555 14.3777L16.1891 16.225C16.1071 16.191 16.0326 16.1411 15.9699 16.0783L17.3856 14.6655ZM16.9555 14.3777C16.7946 14.3109 16.6221 14.2766 16.4479 14.2766V16.2766C16.3591 16.2766 16.2712 16.259 16.1891 16.225L16.9555 14.3777ZM16.4479 14.2766C16.2737 14.2766 16.1012 14.3109 15.9403 14.3777L16.7066 16.225C16.6246 16.259 16.5367 16.2766 16.4479 16.2766V14.2766ZM15.9403 14.3777C15.7794 14.4444 15.6332 14.5422 15.5102 14.6655L16.9259 16.0783C16.8631 16.1411 16.7886 16.191 16.7066 16.225L15.9403 14.3777ZM15.5116 14.6641L13.9173 16.2552L15.3301 17.6708L16.9244 16.0797L15.5116 14.6641ZM15.3308 16.2559L13.7365 14.6615L12.3222 16.0758L13.9166 17.6701L15.3308 16.2559ZM13.7365 14.6615C13.6134 14.5385 13.4673 14.4409 13.3066 14.3743L12.5412 16.2221C12.4593 16.1881 12.3849 16.1384 12.3222 16.0758L13.7365 14.6615ZM13.3066 14.3743C13.1458 14.3077 12.9735 14.2734 12.7995 14.2734L12.7995 16.2734C12.7109 16.2734 12.6231 16.256 12.5412 16.2221L13.3066 14.3743ZM12.7995 14.2734C12.6255 14.2734 12.4532 14.3077 12.2924 14.3743L13.0578 16.2221C12.9759 16.256 12.8881 16.2734 12.7995 16.2734L12.7995 14.2734ZM12.2924 14.3743C12.1316 14.4409 11.9856 14.5385 11.8625 14.6615L13.2767 16.0758C13.2141 16.1384 13.1397 16.1881 13.0578 16.2221L12.2924 14.3743ZM11.8625 14.6615C11.7395 14.7846 11.6419 14.9307 11.5753 15.0914L13.4231 15.8568C13.3891 15.9387 13.3394 16.0131 13.2767 16.0758L11.8625 14.6615ZM11.5753 15.0914C11.5087 15.2522 11.4744 15.4245 11.4744 15.5985L13.4744 15.5985C13.4744 15.6871 13.457 15.7749 13.4231 15.8568L11.5753 15.0914ZM11.4744 15.5985C11.4744 15.7725 11.5087 15.9448 11.5753 16.1056L13.4231 15.3402C13.457 15.4221 13.4744 15.5099 13.4744 15.5985L11.4744 15.5985ZM11.5753 16.1056C11.6419 16.2664 11.7395 16.4124 11.8625 16.5355L13.2767 15.1213C13.3394 15.1839 13.3891 15.2583 13.4231 15.3402L11.5753 16.1056ZM11.8625 16.5355L13.4569 18.1298L14.8711 16.7156L13.2767 15.1213L11.8625 16.5355ZM13.4569 16.7156L11.8625 18.3099L13.2767 19.7241L14.8711 18.1298L13.4569 16.7156ZM11.8625 18.3099C11.7395 18.433 11.6419 18.579 11.5753 18.7398L13.4231 19.5052C13.3891 19.5871 13.3394 19.6615 13.2767 19.7241L11.8625 18.3099ZM11.5753 18.7398C11.5087 18.9006 11.4744 19.0729 11.4744 19.2469H13.4744C13.4744 19.3355 13.457 19.4233 13.4231 19.5052L11.5753 18.7398ZM11.4744 19.2469C11.4744 19.4209 11.5087 19.5932 11.5753 19.754L13.4231 18.9886C13.457 19.0705 13.4744 19.1583 13.4744 19.2469H11.4744ZM11.5753 19.754C11.6419 19.9147 11.7395 20.0608 11.8625 20.1839L13.2767 18.7696C13.3394 18.8323 13.3891 18.9067 13.4231 18.9886L11.5753 19.754ZM11.8625 20.1839C11.9856 20.3069 12.1316 20.4045 12.2924 20.4711L13.0578 18.6233C13.1397 18.6573 13.2141 18.707 13.2767 18.7696L11.8625 20.1839ZM12.2924 20.4711C12.4532 20.5377 12.6255 20.572 12.7995 20.572V18.572C12.8881 18.572 12.9759 18.5894 13.0578 18.6233L12.2924 20.4711ZM12.7995 20.572C12.9735 20.572 13.1458 20.5377 13.3066 20.4711L12.5412 18.6233C12.6231 18.5894 12.7109 18.572 12.7995 18.572V20.572ZM13.3066 20.4711C13.4673 20.4045 13.6134 20.3069 13.7365 20.1839L12.3222 18.7696C12.3849 18.707 12.4593 18.6573 12.5412 18.6233L13.3066 20.4711ZM13.7365 20.1839L15.3308 18.5895L13.9166 17.1753L12.3222 18.7696L13.7365 20.1839ZM13.9166 18.5895L15.5109 20.1839L16.9251 18.7696L15.3308 17.1753L13.9166 18.5895ZM15.5109 20.1839C15.634 20.3069 15.78 20.4045 15.9408 20.4711L16.7062 18.6233C16.7881 18.6573 16.8625 18.707 16.9251 18.7696L15.5109 20.1839ZM15.9408 20.4711C16.1016 20.5377 16.2739 20.572 16.4479 20.572V18.572C16.5365 18.572 16.6243 18.5894 16.7062 18.6233L15.9408 20.4711ZM16.4479 20.572C16.6219 20.572 16.7942 20.5377 16.955 20.4711L16.1896 18.6233C16.2715 18.5894 16.3592 18.572 16.4479 18.572V20.572ZM16.955 20.4711C17.1157 20.4045 17.2618 20.3069 17.3848 20.1839L15.9706 18.7696C16.0333 18.707 16.1077 18.6573 16.1896 18.6233L16.955 20.4711ZM17.3848 20.1839C17.5079 20.0608 17.6055 19.9147 17.6721 19.754L15.8243 18.9886C15.8582 18.9067 15.908 18.8323 15.9706 18.7696L17.3848 20.1839ZM17.6721 19.754C17.7387 19.5932 17.7729 19.4209 17.7729 19.2469H15.7729C15.7729 19.1583 15.7904 19.0705 15.8243 18.9886L17.6721 19.754ZM17.7729 19.2469C17.7729 19.0729 17.7387 18.9006 17.6721 18.7398L15.8243 19.5052C15.7904 19.4233 15.7729 19.3355 15.7729 19.2469H17.7729ZM17.6721 18.7398C17.6055 18.579 17.5079 18.433 17.3848 18.3099L15.9706 19.7241C15.908 19.6615 15.8582 19.5871 15.8243 19.5052L17.6721 18.7398ZM17.3848 18.3099L15.7905 16.7156L14.3763 18.1298L15.9706 19.7241L17.3848 18.3099ZM15.7905 18.1298L17.3848 16.5355L15.9706 15.1213L14.3763 16.7156L15.7905 18.1298ZM17.3848 16.5355C17.8993 16.0211 17.8993 15.1792 17.3848 14.6648L15.9706 16.079C15.704 15.8124 15.704 15.3879 15.9706 15.1213L17.3848 16.5355Z" fill="white" mask="url(#path-3-outside-1_1440_4742)"/>
<defs>
<clipPath id="clip0_1440_4742">
<rect width="13" height="13" fill="white" transform="translate(5.5 4.42773)"/>
</clipPath>
</defs>
</svg>
