<svg width="24" height="24" viewBox="0 0 24 24" fill="none" xmlns="http://www.w3.org/2000/svg">
<path d="M15.8 16.5L12.65 13.35C12.4 13.55 12.1125 13.7083 11.7875 13.825C11.4625 13.9417 11.1167 14 10.75 14C9.84167 14 9.073 13.6855 8.444 13.0565C7.81467 12.4272 7.5 11.6583 7.5 10.75C7.5 9.84167 7.81467 9.07283 8.444 8.4435C9.073 7.8145 9.84167 7.5 10.75 7.5C11.6583 7.5 12.4272 7.8145 13.0565 8.4435C13.6855 9.07283 14 9.84167 14 10.75C14 11.1167 13.9417 11.4625 13.825 11.7875C13.7083 12.1125 13.55 12.4 13.35 12.65L16.5 15.8L15.8 16.5ZM10.75 13C11.375 13 11.9063 12.7813 12.344 12.344C12.7813 11.9063 13 11.375 13 10.75C13 10.125 12.7813 9.59367 12.344 9.156C11.9063 8.71867 11.375 8.5 10.75 8.5C10.125 8.5 9.59367 8.71867 9.156 9.156C8.71867 9.59367 8.5 10.125 8.5 10.75C8.5 11.375 8.71867 11.9063 9.156 12.344C9.59367 12.7813 10.125 13 10.75 13Z" fill="black"/>
</svg>
