<svg width="24" height="24" viewBox="0 0 24 24" fill="none" xmlns="http://www.w3.org/2000/svg">
<g clip-path="url(#clip0_1440_4750)">
<path d="M13.0425 6.09095C13.2383 6.12569 13.4123 6.23677 13.5262 6.39978C13.6402 6.56279 13.6847 6.76437 13.65 6.9602L11.8275 17.3004C11.793 17.4964 11.682 17.6706 11.5191 17.7847C11.3562 17.8988 11.1545 17.9436 10.9586 17.9091C10.7627 17.8746 10.5885 17.7636 10.4744 17.6007C10.3602 17.4377 10.3155 17.2361 10.35 17.0402L12.1725 6.6992C12.1897 6.60216 12.2258 6.50947 12.2789 6.42642C12.3319 6.34336 12.4008 6.27157 12.4816 6.21516C12.5624 6.15874 12.6535 6.1188 12.7498 6.09761C12.846 6.07643 12.9455 6.07442 13.0425 6.0917V6.09095ZM8.40449 8.2877C8.54509 8.42834 8.62408 8.61907 8.62408 8.81795C8.62408 9.01682 8.54509 9.20755 8.40449 9.3482L5.75399 12.0002L8.40524 14.6514C8.47492 14.7211 8.53021 14.8038 8.56794 14.8948C8.60567 14.9858 8.62511 15.0833 8.62514 15.1818C8.62518 15.2803 8.60581 15.3779 8.56814 15.4689C8.53048 15.5599 8.47525 15.6426 8.40562 15.7123C8.33598 15.782 8.25331 15.8373 8.16231 15.875C8.07131 15.9128 7.97377 15.9322 7.87526 15.9322C7.77675 15.9323 7.67919 15.9129 7.58817 15.8752C7.49714 15.8376 7.41442 15.7823 7.34474 15.7127L4.16249 12.5304C4.02189 12.3898 3.9429 12.1991 3.9429 12.0002C3.9429 11.8013 4.02189 11.6106 4.16249 11.4699L7.34474 8.2877C7.48539 8.14709 7.67612 8.06811 7.87499 8.06811C8.07386 8.06811 8.26385 8.14709 8.40449 8.2877ZM16.6545 8.2877L19.8367 11.4699C19.9773 11.6106 20.0563 11.8013 20.0563 12.0002C20.0563 12.1991 19.9773 12.3898 19.8367 12.5304L16.6545 15.7119C16.5853 15.7836 16.5025 15.8407 16.411 15.88C16.3195 15.9193 16.2211 15.94 16.1215 15.9409C16.022 15.9418 15.9232 15.9228 15.831 15.8851C15.7389 15.8474 15.6551 15.7917 15.5847 15.7212C15.5143 15.6508 15.4586 15.5671 15.4209 15.4749C15.3832 15.3827 15.3642 15.284 15.3651 15.1844C15.3659 15.0848 15.3866 14.9864 15.4259 14.8949C15.4652 14.8034 15.5224 14.7206 15.594 14.6514L18.246 12.0002L15.5947 9.3482C15.5231 9.27901 15.466 9.19625 15.4267 9.10475C15.3874 9.01325 15.3667 8.91483 15.3658 8.81525C15.3649 8.71566 15.3839 8.6169 15.4216 8.52473C15.4593 8.43256 15.515 8.34882 15.5854 8.2784C15.6559 8.20798 15.7396 8.15229 15.8318 8.11458C15.9239 8.07687 16.0227 8.05789 16.1223 8.05876C16.2219 8.05963 16.3203 8.08031 16.4118 8.11962C16.5033 8.15893 16.5861 8.21607 16.6552 8.2877H16.6545Z" fill="black"/>
</g>
<defs>
<clipPath id="clip0_1440_4750">
<rect width="18" height="18" fill="white" transform="translate(3 3)"/>
</clipPath>
</defs>
</svg>
