<svg width="14" height="12" viewBox="0 0 14 12" fill="none" xmlns="http://www.w3.org/2000/svg">
<path d="M10.8655 7.5C11.038 7.887 11.125 8.3175 11.125 8.79C11.125 9.7965 10.732 10.584 9.94675 11.1503C9.16 11.7165 8.07475 12 6.6895 12C5.4595 12 4.24225 11.7143 3.037 11.142V9.45C4.177 10.1077 5.34325 10.437 6.5365 10.437C8.44975 10.437 9.409 9.888 9.41575 8.78925C9.41971 8.56648 9.37871 8.34519 9.2952 8.13862C9.2117 7.93206 9.08741 7.74444 8.92975 7.587L8.83975 7.49925H0.25V5.99925H13.75V7.49925H10.8655V7.5ZM7.807 5.25H3.72175C3.59037 5.13021 3.46967 4.99922 3.361 4.8585C3.037 4.44 2.875 3.9345 2.875 3.339C2.875 2.412 3.2245 1.62375 3.92275 0.97425C4.6225 0.32475 5.70325 0 7.1665 0C8.26975 0 9.32575 0.246 10.333 0.738V2.352C9.433 1.83675 8.44675 1.5795 7.3735 1.5795C5.5135 1.5795 4.58425 2.166 4.58425 3.339C4.58425 3.654 4.74775 3.9285 5.07475 4.16325C5.40175 4.398 5.80525 4.58475 6.2845 4.72575C6.7495 4.86075 7.25725 5.03625 7.807 5.25Z" fill="#202020"/>
</svg>
