<svg width="24" height="24" viewBox="0 0 24 24" fill="none" xmlns="http://www.w3.org/2000/svg">
<path d="M17.25 18V16.5C17.25 16.2875 17.322 16.1093 17.466 15.9653C17.61 15.8213 17.788 15.7495 18 15.75H19.5V15H17.25V14.25H19.5C19.7125 14.25 19.8907 14.322 20.0347 14.466C20.1787 14.61 20.2505 14.788 20.25 15V15.75C20.25 15.9625 20.178 16.1407 20.034 16.2847C19.89 16.4287 19.712 16.5005 19.5 16.5H18V17.25H20.25V18H17.25ZM7.40625 16.5L10.875 11.0438L7.65 6H9.6375L11.9625 9.75H12.0375L14.3438 6H16.35L13.1063 11.0438L16.5938 16.5H14.5875L12.0375 12.4312H11.9625L9.4125 16.5H7.40625Z" fill="black"/>
</svg>
