<svg width="24" height="24" viewBox="0 0 24 24" fill="none" xmlns="http://www.w3.org/2000/svg">
<path opacity="0.5" d="M14.1667 8.5C14.3103 8.5 14.4481 8.44732 14.5497 8.35355C14.6513 8.25979 14.7083 8.13261 14.7083 8C14.7083 7.86739 14.6513 7.74021 14.5497 7.64645C14.4481 7.55268 14.3103 7.5 14.1667 7.5H9.83332C9.68966 7.5 9.55189 7.55268 9.45031 7.64645C9.34872 7.74021 9.29166 7.86739 9.29166 8C9.29166 8.13261 9.34872 8.25979 9.45031 8.35355C9.55189 8.44732 9.68966 8.5 9.83332 8.5H14.1667ZM14.1667 9.5C14.3103 9.5 14.4481 9.55268 14.5497 9.64645C14.6513 9.74021 14.7083 9.86739 14.7083 10C14.7083 10.1326 14.6513 10.2598 14.5497 10.3536C14.4481 10.4473 14.3103 10.5 14.1667 10.5H9.83332C9.68966 10.5 9.55189 10.4473 9.45031 10.3536C9.34872 10.2598 9.29166 10.1326 9.29166 10C9.29166 9.86739 9.34872 9.74021 9.45031 9.64645C9.55189 9.55268 9.68966 9.5 9.83332 9.5H14.1667ZM14.7083 12C14.7083 12.1326 14.6513 12.2598 14.5497 12.3536C14.4481 12.4473 14.3103 12.5 14.1667 12.5H9.83332C9.68966 12.5 9.55189 12.4473 9.45031 12.3536C9.34872 12.2598 9.29166 12.1326 9.29166 12C9.29166 11.8674 9.34872 11.7402 9.45031 11.6464C9.55189 11.5527 9.68966 11.5 9.83332 11.5H14.1667C14.3103 11.5 14.4481 11.5527 14.5497 11.6464C14.6513 11.7402 14.7083 11.8674 14.7083 12ZM14.1667 16.5C14.3103 16.5 14.4481 16.4473 14.5497 16.3536C14.6513 16.2598 14.7083 16.1326 14.7083 16C14.7083 15.8674 14.6513 15.7402 14.5497 15.6464C14.4481 15.5527 14.3103 15.5 14.1667 15.5H9.83332C9.68966 15.5 9.55189 15.5527 9.45031 15.6464C9.34872 15.7402 9.29166 15.8674 9.29166 16C9.29166 16.1326 9.34872 16.2598 9.45031 16.3536C9.55189 16.4473 9.68966 16.5 9.83332 16.5H14.1667Z" fill="black"/>
<path fill-rule="evenodd" clip-rule="evenodd" d="M16.875 14C16.875 14.1326 16.8179 14.2598 16.7164 14.3536C16.6148 14.4473 16.477 14.5 16.3333 14.5H7.66667C7.52301 14.5 7.38523 14.4473 7.28365 14.3536C7.18207 14.2598 7.125 14.1326 7.125 14C7.125 13.8674 7.18207 13.7402 7.28365 13.6464C7.38523 13.5527 7.52301 13.5 7.66667 13.5H16.3333C16.477 13.5 16.6148 13.5527 16.7164 13.6464C16.8179 13.7402 16.875 13.8674 16.875 14Z" fill="black"/>
</svg>
