<svg width="24" height="24" viewBox="0 0 24 24" fill="none" xmlns="http://www.w3.org/2000/svg">
<path d="M17.25 9.75V8.25C17.25 8.0375 17.322 7.85925 17.466 7.71525C17.61 7.57125 17.788 7.4995 18 7.5H19.5V6.75H17.25V6H19.5C19.7125 6 19.8907 6.072 20.0347 6.216C20.1787 6.36 20.2505 6.538 20.25 6.75V7.5C20.25 7.7125 20.178 7.89075 20.034 8.03475C19.89 8.17875 19.712 8.2505 19.5 8.25H18V9H20.25V9.75H17.25ZM7.40625 18L10.875 12.5438L7.65 7.5H9.6375L11.9625 11.25H12.0375L14.3438 7.5H16.35L13.1063 12.5438L16.5938 18H14.5875L12.0375 13.9312H11.9625L9.4125 18H7.40625Z" fill="black"/>
</svg>
