<svg width="10" height="12" viewBox="0 0 10 12" fill="none" xmlns="http://www.w3.org/2000/svg">
<path d="M0.333344 12H9.66668V10.6667H0.333344V12ZM5.00001 9.33333C6.06088 9.33333 7.07829 8.91191 7.82844 8.16176C8.57858 7.41161 9.00001 6.3942 9.00001 5.33333V0H7.33334V5.33333C7.33334 5.95217 7.08751 6.54566 6.64993 6.98325C6.21234 7.42083 5.61885 7.66667 5.00001 7.66667C4.38117 7.66667 3.78768 7.42083 3.35009 6.98325C2.91251 6.54566 2.66668 5.95217 2.66668 5.33333V0H1.00001V5.33333C1.00001 6.3942 1.42144 7.41161 2.17158 8.16176C2.92173 8.91191 3.93914 9.33333 5.00001 9.33333Z" fill="#202020"/>
</svg>
