<svg width="24" height="24" viewBox="0 0 24 24" fill="none" xmlns="http://www.w3.org/2000/svg">
<path d="M9.66666 16.0831C9.50139 16.0831 9.36275 16.0271 9.25075 15.9151C9.13875 15.8031 9.08294 15.6647 9.08333 15.4998C9.08333 15.3345 9.13933 15.1959 9.25133 15.0839C9.36333 14.9719 9.50177 14.9161 9.66666 14.9165H13.225C13.8375 14.9165 14.3699 14.722 14.8222 14.3331C15.2744 13.9442 15.5004 13.4581 15.5 12.8748C15.5 12.2915 15.2739 11.8054 14.8216 11.4165C14.3693 11.0276 13.8371 10.8331 13.225 10.8331H9.55L10.6583 11.9415C10.7653 12.0484 10.8187 12.1845 10.8187 12.3498C10.8187 12.5151 10.7653 12.6512 10.6583 12.7581C10.5514 12.8651 10.4153 12.9186 10.25 12.9186C10.0847 12.9186 9.94861 12.8651 9.84166 12.7581L7.74166 10.6581C7.68333 10.5998 7.64191 10.5366 7.61741 10.4686C7.59291 10.4005 7.58086 10.3276 7.58125 10.2498C7.58125 10.172 7.5935 10.0991 7.618 10.0311C7.6425 9.963 7.68372 9.8998 7.74166 9.84147L9.84166 7.74147C9.94861 7.63453 10.0847 7.58105 10.25 7.58105C10.4153 7.58105 10.5514 7.63453 10.6583 7.74147C10.7653 7.84842 10.8187 7.98453 10.8187 8.1498C10.8187 8.31508 10.7653 8.45119 10.6583 8.55814L9.55 9.66647H13.225C14.1681 9.66647 14.9775 9.97272 15.6534 10.5852C16.3293 11.1977 16.6671 11.9609 16.6667 12.8748C16.6667 13.7887 16.3287 14.5519 15.6528 15.1644C14.9769 15.7769 14.1677 16.0831 13.225 16.0831H9.66666Z" fill="black"/>
</svg>
