<svg fill="none" height="32" width="119" xmlns="http://www.w3.org/2000/svg"><g fill="#000"><path d="m.707 12.106 10.724.002h6.522v-6.46zm17.246-6.458v22.809l8.145-25.86z"/><path d="m17.95 12.107-6.52-.002 6.52 16.35z"/><path d="m.707 12.105 12.397 4.198-1.673-4.195-10.724-.003zm39.506 10.346a3.005 3.005 0 0 1 -.473.354c-.22.142-.508.284-.862.425a7.561 7.561 0 0 1 -1.3.366 9.059 9.059 0 0 1 -1.759.154c-1.276 0-2.378-.205-3.307-.614-.93-.41-1.697-.98-2.303-1.713-.606-.732-1.051-1.598-1.335-2.598-.283-1-.425-2.098-.425-3.295s.154-2.303.46-3.32c.308-1.015.768-1.893 1.383-2.633a6.35 6.35 0 0 1 2.303-1.736c.921-.417 2.004-.626 3.248-.626.614 0 1.169.055 1.665.165s.929.24 1.3.39c.37.15.676.307.92.472.244.166.43.304.556.414.141.126.263.275.366.448.102.174.153.363.153.567 0 .316-.118.63-.354.945a6.84 6.84 0 0 1 -.78.874 9.603 9.603 0 0 0 -.637-.578c-.236-.197-.5-.37-.792-.52a5.246 5.246 0 0 0 -.992-.378 4.656 4.656 0 0 0 -1.24-.154c-.803 0-1.476.162-2.02.485-.543.323-.98.744-1.31 1.263a5.361 5.361 0 0 0 -.71 1.784 10.36 10.36 0 0 0 0 4.17c.143.676.387 1.275.733 1.794.346.52.8.937 1.358 1.252.56.315 1.256.473 2.09.473.441 0 .847-.055 1.217-.166a4.88 4.88 0 0 0 1.725-.897c.212-.173.39-.323.531-.45.095.111.205.245.33.402.128.16.246.325.355.497.11.173.205.346.284.52.078.173.118.33.118.471 0 .205-.04.379-.118.52-.08.142-.205.3-.378.473zm12.173-1.812c0 1.252.182 2.163.546 2.733-.285.11-.55.19-.796.238a4.053 4.053 0 0 1 -.772.07c-.57 0-1.002-.11-1.295-.332-.293-.221-.48-.538-.559-.95-.348.364-.808.673-1.378.927-.57.253-1.267.38-2.091.38-.428 0-.855-.06-1.283-.178a3.37 3.37 0 0 1 -1.165-.58 3.011 3.011 0 0 1 -.855-1.078c-.222-.45-.333-.999-.333-1.646 0-.806.194-1.461.582-1.966a4.146 4.146 0 0 1 1.462-1.197 6.615 6.615 0 0 1 1.9-.604 18.06 18.06 0 0 1 1.878-.213c.19-.016.376-.024.559-.024h.51v-.432c0-.61-.162-1.042-.487-1.298s-.851-.385-1.58-.385c-.681 0-1.287.111-1.818.333-.53.222-1.05.475-1.556.76-.222-.269-.4-.566-.535-.89-.135-.325-.202-.567-.202-.726 0-.221.122-.435.368-.641s.583-.392 1.01-.559c.428-.166.919-.3 1.474-.404a9.627 9.627 0 0 1 1.758-.154c.856 0 1.58.087 2.175.261.594.175 1.077.444 1.45.808.371.365.637.82.795 1.367.158.546.238 1.184.238 1.913zm-3.042-2.756h-.333a2.38 2.38 0 0 0 -.332.023c-.397.032-.789.08-1.177.143a3.376 3.376 0 0 0 -1.033.333 2.169 2.169 0 0 0 -.737.617c-.19.254-.285.579-.285.975 0 .444.126.82.38 1.128.253.31.68.464 1.283.464.301 0 .586-.04.856-.119.269-.079.507-.182.713-.309a1.84 1.84 0 0 0 .487-.416c.119-.15.178-.289.178-.415zm8.959-4.682c.252-.3.647-.606 1.184-.915s1.216-.463 2.038-.463c.584 0 1.14.099 1.67.297.529.198.999.519 1.41.962.41.444.737 1.03.983 1.759.244.729.367 1.624.367 2.685 0 1.236-.143 2.254-.427 3.054s-.651 1.434-1.101 1.901-.952.796-1.504.986a5.073 5.073 0 0 1 -1.659.285 4.14 4.14 0 0 1 -1.196-.154 4.79 4.79 0 0 1 -.865-.345 2.3 2.3 0 0 1 -.781-.642v5.842h-3.232v-16.298a5.734 5.734 0 0 1 .623-.083c.127-.007.279-.012.454-.012.527 0 .974.088 1.341.262s.599.467.695.88zm4.277 4.396c0-.475-.04-.918-.118-1.33a3.237 3.237 0 0 0 -.39-1.07 1.898 1.898 0 0 0 -.732-.7c-.308-.167-.682-.25-1.123-.25-.661 0-1.122.127-1.382.38s-.39.53-.39.832v5.038c.126.127.35.277.673.451.323.175.697.261 1.123.261.803 0 1.394-.316 1.772-.95s.567-1.521.567-2.662zm5.87 4.088a4.13 4.13 0 0 1 -.215-.998 11.46 11.46 0 0 1 -.047-1.046v-11.026c.11-.016.23-.032.356-.048.11-.015.23-.027.357-.036.126-.007.253-.011.38-.011.253 0 .507.023.76.07.254.048.483.144.69.286.205.143.372.337.499.582.126.246.19.567.19.963v1.687h3.327v2.4h-3.327v5.068c0 1.105.451 1.657 1.354 1.657.222 0 .432-.035.63-.107.198-.071.376-.15.535-.237a3.328 3.328 0 0 0 .665-.487c.238.348.42.65.546.905.127.255.19.494.19.718 0 .208-.082.412-.249.612-.166.2-.4.384-.701.552a4.36 4.36 0 0 1 -1.093.407 5.931 5.931 0 0 1 -1.402.156c-.983 0-1.747-.19-2.293-.57-.547-.38-.931-.88-1.153-1.497zm14.482-.31a3.796 3.796 0 0 0 1.86-.45c.238-.127.445-.266.62-.416s.334-.29.477-.416c.19.237.39.542.596.914.207.373.31.678.31.915 0 .349-.198.666-.594.951-.332.254-.804.471-1.414.653-.61.183-1.327.274-2.15.274a8.576 8.576 0 0 1 -2.198-.285 4.861 4.861 0 0 1 -1.925-.999c-.563-.475-1.018-1.112-1.367-1.912s-.523-1.81-.523-3.03c0-.998.155-1.858.464-2.579.309-.72.72-1.318 1.236-1.794a4.87 4.87 0 0 1 1.746-1.046 6.141 6.141 0 0 1 1.996-.332c.887 0 1.64.139 2.258.416s1.12.65 1.509 1.117c.388.467.669 1.002.843 1.604a6.81 6.81 0 0 1 .262 1.9v.333c0 .127-.004.262-.012.404l-.024.416a2.59 2.59 0 0 1 -.035.321h-7.01c.063.872.333 1.596.81 2.175.476.578 1.231.867 2.265.867zm1.083-4.823c0-.76-.148-1.378-.442-1.854-.295-.475-.825-.713-1.59-.713-.653 0-1.175.226-1.565.678-.39.451-.586 1.08-.586 1.889zm8.547-3.29c.095-.142.222-.3.38-.472.158-.173.353-.33.582-.472.23-.141.483-.26.76-.354.278-.094.575-.141.892-.141.19 0 .392.016.606.047.214.032.412.09.594.177.182.086.329.204.44.353.11.15.166.334.166.554 0 .346-.087.742-.261 1.19a9.714 9.714 0 0 1 -.523 1.148 3.524 3.524 0 0 0 -.808-.51 2.341 2.341 0 0 0 -.95-.179c-.492 0-.904.143-1.236.43-.333.285-.5.627-.5 1.024v7.693h-3.231v-11.595a5.699 5.699 0 0 1 .618-.083c.126-.007.277-.012.451-.012.507 0 .947.099 1.319.295s.606.498.701.906zm9.189 0c.095-.142.221-.3.38-.472.158-.173.352-.33.582-.472.23-.141.483-.26.761-.354.277-.094.574-.141.891-.141.19 0 .392.016.606.047.213.032.411.09.594.177.182.086.328.204.44.353.11.15.166.334.166.554 0 .346-.088.742-.262 1.19a9.672 9.672 0 0 1 -.522 1.148 3.534 3.534 0 0 0 -.808-.51 2.346 2.346 0 0 0 -.951-.179c-.491 0-.903.143-1.236.43-.332.285-.499.627-.499 1.024v7.693h-3.232v-11.595a5.724 5.724 0 0 1 .618-.083c.127-.007.277-.012.452-.012.507 0 .946.099 1.319.295.372.196.605.498.701.906zm15.423 7.377c0 1.252.182 2.163.546 2.733-.285.11-.55.19-.796.238a4.055 4.055 0 0 1 -.772.07c-.571 0-1.002-.11-1.295-.332-.294-.221-.48-.538-.559-.95-.348.364-.808.673-1.378.927-.57.253-1.268.38-2.091.38-.428 0-.856-.06-1.284-.178a3.373 3.373 0 0 1 -1.164-.58 3.012 3.012 0 0 1 -.856-1.078c-.222-.45-.332-.999-.332-1.646 0-.806.194-1.461.582-1.966a4.141 4.141 0 0 1 1.462-1.197 6.6 6.6 0 0 1 1.901-.604c.681-.11 1.307-.181 1.877-.213.19-.016.376-.024.559-.024h.51v-.432c0-.61-.162-1.042-.487-1.298s-.852-.385-1.58-.385c-.681 0-1.287.111-1.818.333a14.88 14.88 0 0 0 -1.557.76c-.222-.269-.4-.566-.534-.89-.135-.325-.202-.567-.202-.726 0-.221.122-.435.368-.641s.582-.392 1.01-.559c.428-.166.919-.3 1.473-.404a9.637 9.637 0 0 1 1.759-.154c.855 0 1.58.087 2.174.261.594.175 1.077.444 1.45.808.372.365.637.82.796 1.367.158.546.238 1.184.238 1.913zm-3.042-2.756h-.333a2.39 2.39 0 0 0 -.333.023c-.396.032-.788.08-1.176.143a3.385 3.385 0 0 0 -1.034.333 2.167 2.167 0 0 0 -.736.617c-.19.254-.286.579-.286.975 0 .444.127.82.381 1.128.253.31.681.464 1.283.464.301 0 .586-.04.856-.119.269-.079.506-.182.712-.309s.369-.265.488-.416c.118-.15.178-.289.178-.415z"/></g></svg>