<svg width="127" height="32" fill="none" xmlns="http://www.w3.org/2000/svg"><path d="M42.74 18.022h2.484c-.357 1.397-1.055 2.453-2.08 3.183-1.025.76-2.313 1.149-3.866 1.149-1.879 0-3.354-.606-4.425-1.832-1.056-1.196-1.584-2.888-1.584-5.108 0-2.112.513-3.773 1.538-4.969 1.055-1.226 2.53-1.832 4.424-1.832 1.988 0 3.525.59 4.611 1.786a6.857 6.857 0 0 1 1.29 2.53h-3.479c-.17-.326-.326-.574-.496-.745-.435-.466-1.04-.698-1.832-.698-.73 0-1.32.232-1.786.698-.59.668-.9 1.755-.9 3.276 0 1.522.295 2.593.9 3.23.435.527 1.071.791 1.94.791.56 0 1.041-.108 1.445-.341a.906.906 0 0 0 .28-.171l.279-.28c.062-.093.201-.232.403-.403.155-.187.466-.264.854-.264zm3.03 4.066V15.69c0-1.289.186-2.376.574-3.245.373-.87.9-1.583 1.568-2.111.621-.497 1.366-.854 2.205-1.087a9.696 9.696 0 0 1 2.608-.342h.497v3.525h-1.149c-.963 0-1.677.233-2.127.698-.466.466-.699 1.196-.699 2.19v6.8H45.77v-.032zm9.44-1.195c-.698-.59-1.195-1.398-1.49-2.407a11.206 11.206 0 0 1-.45-3.151c0-.9.124-1.786.372-2.686.249-.9.637-1.63 1.165-2.236.853-.994 1.971-1.584 3.322-1.754 1.35-.187 2.577-.078 3.68.326 1.257.496 2.189 1.35 2.779 2.577.559 1.087.838 2.36.838 3.82 0 1.055-.109 1.97-.341 2.732-.233.76-.528 1.412-.9 1.94-.793 1.087-1.802 1.77-3.028 2.034a6.807 6.807 0 0 1-3.307.078c-1.103-.248-1.988-.683-2.64-1.273zm2.376-8.741c-.699.76-1.01 1.894-.947 3.4.062 1.506.341 2.562.838 3.152.202.264.543.481 1.04.667a2.32 2.32 0 0 0 1.522.047c.512-.155.962-.528 1.366-1.118.404-.59.605-1.553.652-2.872 0-1.196-.186-2.08-.574-2.686-.389-.59-.823-.978-1.32-1.15a2.444 2.444 0 0 0-1.49-.03c-.497.17-.854.373-1.087.59zm8.383 9.935v-2.623l7.095-7.84h-5.015c-.466 0-.854-.156-1.195-.466a1.548 1.548 0 0 1-.497-1.165V8.906h10.821v2.81l-7.002 7.5h7.25v2.871H65.97zM86.727 4.965h1.693c.465 0 .854.17 1.195.528.326.341.497.73.497 1.164v9.673c0 2.344-.683 3.943-2.034 4.766a8.354 8.354 0 0 1-4.425 1.242c-.854 0-1.708-.14-2.53-.42-.823-.279-1.49-.729-1.988-1.365-.962-1.227-1.444-2.888-1.444-5.015 0-2.08.482-3.757 1.444-5.015.994-1.289 2.267-1.94 3.82-1.94.823 0 1.552.17 2.189.496a4.694 4.694 0 0 1 1.583 1.537V4.965zm-5.666 10.418c0 1.32.248 2.328.745 3.027.496.699 1.21 1.04 2.127 1.04.9 0 1.583-.341 2.08-1.04.466-.699.699-1.708.699-3.027 0-1.196-.249-2.127-.745-2.826-.528-.668-1.242-.994-2.127-.994-.854 0-1.538.342-2.034 1.04-.497.668-.745 1.6-.745 2.78zm18.816 2.639h2.484c-.357 1.397-1.056 2.453-2.08 3.183-1.025.76-2.314 1.149-3.866 1.149-1.879 0-3.354-.606-4.425-1.832-1.056-1.196-1.584-2.888-1.584-5.108 0-2.112.513-3.773 1.537-4.969C93 9.22 94.474 8.613 96.368 8.613c1.987 0 3.524.59 4.611 1.786 1.056 1.226 1.584 2.934 1.584 5.108v.543c0 .17-.016.28-.047.342h-8.585c.03 1.024.279 1.785.745 2.282.434.528 1.071.792 1.94.792.56 0 1.04-.109 1.444-.342a.906.906 0 0 0 .28-.17l.28-.28c.03-.093.155-.233.372-.404.17-.17.481-.248.885-.248zm-5.962-3.882h5.061c-.062-.9-.295-1.552-.698-1.987-.435-.466-1.04-.699-1.832-.699-.73 0-1.32.233-1.786.7-.465.465-.714 1.133-.745 1.986zm8.882 3.587h3.369c.031.668.279 1.164.745 1.49.497.326 1.165.497 1.987.497.59 0 1.103-.108 1.538-.341.403-.233.589-.544.589-.948 0-.59-.698-1.04-2.08-1.335a9.557 9.557 0 0 1-1.335-.295c-1.755-.434-2.935-.947-3.524-1.537-.668-.59-.994-1.397-.994-2.375 0-1.258.481-2.298 1.444-3.12.993-.762 2.282-1.15 3.866-1.15 1.723 0 3.089.388 4.114 1.15.963.822 1.475 1.909 1.537 3.229h-2.111c-.637 0-1.103-.28-1.444-.839-.14-.124-.264-.264-.404-.404-.404-.295-.947-.45-1.63-.45-.668 0-1.165.093-1.491.295-.295.202-.45.497-.45.9 0 .529.854.979 2.577 1.336.202.062.373.109.528.155.155.031.295.047.419.047 1.693.434 2.857.931 3.525 1.49.621.59.947 1.397.947 2.376 0 1.459-.528 2.577-1.584 3.369-.993.73-2.484 1.087-4.471 1.087-1.879 0-3.292-.373-4.223-1.15-.963-.76-1.444-1.863-1.444-3.322v-.155zm15.743-8.85v4.86l4.223-4.86h4.177l-4.72 5.062 4.766 8.135h-4.176l-2.438-4.456c-.497-.9-.931-1.273-1.288-1.148-.357.14-.544.326-.544.59v5.014h-3.478V4.996h1.786c.466 0 .854.17 1.195.497.326.326.497.714.497 1.149v2.236zM26.611 10.34c.015-1.739-.76-3.028-2.251-3.897l-8.803-5.077c-1.49-.854-2.997-.87-4.503 0-2.95 1.692-5.868 3.385-8.803 5.077C.776 7.312 0 8.584 0 10.292V20.57c0 1.74.776 3.028 2.267 3.882 2.919 1.676 5.837 3.384 8.756 5.061 1.522.87 3.028.87 4.55 0 2.902-1.677 5.806-3.369 8.725-5.03 1.552-.9 2.344-2.205 2.313-4.006-.015-1.661 0-3.338 0-4.984 0-1.723-.015-3.446 0-5.154zM20.96 20.524c-1.18.667-2.345 1.366-3.525 2.034-.03.015-.062.046-.108.062-1.134.667-2.267 1.304-3.4 1.971a1.032 1.032 0 0 1-.28.125c-.28.077-.528.03-.807-.125-2.391-1.381-4.767-2.763-7.173-4.145-.357-.202-.512-.466-.512-.9v-.777c.015-2.5.015-5.014 0-7.514v-.14c0-.015.015-.046.015-.062.047-.326.202-.543.497-.714 1.133-.637 5.884-3.37 7.064-4.052.435-.249.668-.109.668.403l.015 4.487c.016.42-.155.683-.512.9l-2.438 1.414c-.28.155-.403.326-.388.636v2.686c0 .373.109.606.45.807l2.562 1.444c.187.062.342.016.544-.108l2.421-1.429c.358-.202.668-.217 1.025 0 1.165.683 2.655 1.568 3.835 2.252.466.232.466.496.047.745z" fill="#000"/></svg>