<svg width="94" height="28" viewBox="0 0 94 28" fill="none" xmlns="http://www.w3.org/2000/svg">
<path fill-rule="evenodd" clip-rule="evenodd" d="M32.1858 15.4706C31.3937 15.0325 30.976 14.6774 30.976 14.1777C30.976 13.5312 31.5404 13.1341 32.4362 13.1341C33.4798 13.1341 34.3972 13.5723 34.3972 13.5723L35.1278 11.3404C35.1278 11.3404 34.4608 10.8191 32.4783 10.8191C29.7252 10.8191 27.8053 12.4045 27.8053 14.6159C27.8053 15.8667 28.7021 16.8262 29.8914 17.5147C30.8508 18.0565 31.1843 18.4536 31.1843 19.017C31.1843 19.6214 30.7051 20.1006 29.8083 20.1006C28.4733 20.1006 27.2224 19.4131 27.2224 19.4131L26.4497 21.6449C26.4497 21.6449 27.6175 22.4166 29.5579 22.4166C32.3952 22.4166 34.4177 21.019 34.4177 18.5162C34.4598 17.1391 33.4172 16.1797 32.1858 15.4706ZM43.4918 10.7771C42.0942 10.7771 41.0096 11.4441 40.1548 12.4456L40.1138 12.4251L41.3226 6.08352H38.1723L35.1062 22.2083H38.2565L39.299 16.701C39.7167 14.6148 40.7808 13.3424 41.7823 13.3424C42.4903 13.3424 42.7622 13.8227 42.7622 14.5112C42.7622 14.9494 42.7212 15.4706 42.6155 15.9088L41.4272 22.2298H44.5775L45.8078 15.721C45.9535 15.0325 46.0366 14.2187 46.0366 13.6554C46.0572 11.8412 45.1193 10.7771 43.4918 10.7771ZM51.6476 19.9969C50.564 19.9969 50.1258 19.0796 50.1258 17.9323C50.1258 16.1161 51.0637 13.1762 52.7743 13.1762C53.901 13.1762 54.256 14.1356 54.256 15.0745C54.256 17.0345 53.3171 19.9969 51.6486 19.9969H51.6476ZM53.1919 10.7771C49.3952 10.7771 46.8709 14.1982 46.8709 18.0155C46.8709 20.4556 48.3732 22.4381 51.2104 22.4381C54.9445 22.4381 57.4473 19.1001 57.4473 15.1987C57.4678 12.9258 56.1544 10.7761 53.1919 10.7761V10.7771ZM62.5369 20.0595C61.7232 20.0595 61.244 19.6008 61.244 19.6008L61.7653 16.6589C62.1409 14.699 63.1629 13.3845 64.2475 13.3845C65.207 13.3845 65.4994 14.2813 65.4994 15.1156C65.4994 17.1391 64.2886 20.0595 62.5369 20.0595ZM65.5405 10.7771C63.4133 10.7771 62.2034 12.6549 62.2034 12.6549H62.1614L62.3492 10.9649H59.554C59.3768 12.3681 59.1613 13.7662 58.9075 15.1577L56.7177 26.714H59.8669L60.7433 22.041H60.8048C60.8048 22.041 61.4513 22.4586 62.6621 22.4586C66.3747 22.4586 68.7943 18.6619 68.7943 14.8242C68.7943 12.6754 67.8564 10.7771 65.5415 10.7771H65.5405ZM73.3001 6.22924C72.2986 6.22924 71.4859 7.02244 71.4859 8.06602C71.4859 9.00391 72.0698 9.65038 72.9666 9.65038H73.0077C73.9886 9.65038 74.8444 8.98339 74.865 7.81462C74.8855 6.89725 74.2596 6.22924 73.3001 6.22924ZM68.8785 22.2083H72.0492L74.197 11.0275H71.0057L68.8785 22.2083ZM82.207 10.9854H80.0172L80.1219 10.4641C80.3097 9.37948 80.9346 8.42004 81.9997 8.42004C82.562 8.42004 83.0002 8.58627 83.0002 8.58627L83.6261 6.1256C83.6261 6.1256 83.0833 5.85367 81.9156 5.85367C80.7889 5.85367 79.6837 6.16664 78.8279 6.89725C77.7433 7.81462 77.2425 9.1291 76.9922 10.4641L76.9101 10.9854H75.4488L74.9902 13.364H76.4504L74.7819 22.1867H77.9321L79.5996 13.364H81.7699L82.207 10.9854ZM89.8004 11.0275C89.8004 11.0275 87.8189 15.9919 86.9426 18.703H86.9016C86.8379 17.8277 86.1289 11.0275 86.1289 11.0275H82.8124L84.7108 21.2899C84.7518 21.5197 84.7313 21.6654 84.6482 21.8122C84.2358 22.5711 83.6496 23.2216 82.9376 23.7105C82.3527 24.1477 81.6857 24.4186 81.1644 24.6074L82.0407 27.2774C82.6872 27.1306 84.0007 26.6094 85.1274 25.5668C86.567 24.2102 87.902 22.1457 89.2576 19.3084L93.1169 11.0275H89.8004ZM15.0186 26.6094L22.8203 24.9193C22.8203 24.9193 20.0046 5.87419 19.983 5.75003C19.9669 5.63436 19.8708 5.54648 19.7542 5.5407C19.6495 5.5407 17.668 5.39499 17.668 5.39499C17.668 5.39499 16.291 4.01791 16.1247 3.8722L15.9995 3.78908L15.0186 26.6094ZM12.4327 2.34941C13.1828 2.43355 13.663 3.28832 13.976 4.24776L12.7241 4.64385V4.37295C12.7241 3.55922 12.6194 2.89224 12.4327 2.34941ZM11.0977 12.9043C11.0977 12.9043 10.2214 12.4456 9.1788 12.4456C7.61394 12.4456 7.55135 13.4266 7.55135 13.6769C7.55135 15.0109 11.0556 15.5332 11.0556 18.6824C11.0556 21.1657 9.49075 22.7501 7.36356 22.7501C4.81874 22.7501 3.52581 21.1647 3.52581 21.1647L4.21332 18.9123C4.21332 18.9123 5.54833 20.0595 6.67503 20.0595C6.94736 20.0695 7.2121 19.9686 7.40863 19.7798C7.60516 19.591 7.71665 19.3305 7.71758 19.058C7.71758 17.3064 4.83927 17.2222 4.83927 14.3439C4.83927 11.9243 6.57036 9.56726 10.0962 9.56726C11.4517 9.56726 12.1197 9.96335 12.1197 9.96335L11.0977 12.9043ZM10.5128 1.57775C10.6595 1.57775 10.8052 1.6188 10.9509 1.72346C9.88684 2.22422 8.71909 3.49663 8.23989 6.04145C7.5298 6.27131 6.84229 6.47961 6.19479 6.6674C6.75917 4.728 8.11367 1.57775 10.5128 1.57775ZM11.8478 4.76904V4.91578L9.26192 5.70796C9.76165 3.78908 10.7006 2.85016 11.5143 2.49615C11.7226 3.03795 11.8478 3.76856 11.8478 4.76904ZM15.665 3.74701L15.5829 3.76753C15.5614 3.76753 15.2689 3.85167 14.8102 3.99739C14.3516 2.66341 13.5378 1.43204 12.0982 1.43204H11.973C11.5564 0.910763 11.0556 0.680908 10.6174 0.680908C7.2589 0.680908 5.65299 4.87371 5.15224 7.00192C3.8593 7.39801 2.92039 7.68943 2.81572 7.73047C2.08614 7.96136 2.06459 7.98188 1.98147 8.67042C1.89836 9.17117 0 23.8768 0 23.8768L14.6635 26.6299L15.665 3.74701Z" fill="white" />
</svg>
