<svg width="33" height="32" fill="none" xmlns="http://www.w3.org/2000/svg"><g clip-path="url(#clip0)" fill="#000"><path d="M28.326 9.45h-4.78c.13-.752.591-1.17 1.53-1.647l.881-.448c1.575-.809 2.412-1.719 2.412-3.206 0-.94-.361-1.676-1.083-2.21-.708-.535-1.574-.794-2.57-.794-.795 0-1.517.202-2.182.62-.65.405-1.14.925-1.444 1.575l1.387 1.386c.534-1.083 1.314-1.617 2.34-1.617.866 0 1.4.448 1.4 1.069 0 .52-.26.953-1.256 1.458l-.564.275c-1.227.62-2.08 1.328-2.57 2.137-.492.795-.737 1.82-.737 3.048v.332h7.236V9.449zm-.64 4.263h-7.915l-3.959 6.856h7.917l3.958 6.855 3.958-6.855-3.958-6.856z"/><path d="M16.496 25.14c-5.04 0-9.14-4.1-9.14-9.14 0-5.04 4.1-9.14 9.14-9.14l3.13-6.55a16.07 16.07 0 0 0-3.13-.306C7.662.004.5 7.166.5 16c0 8.835 7.162 15.997 15.996 15.997 3.523 0 6.778-1.14 9.421-3.069l-3.465-6.002a9.098 9.098 0 0 1-5.956 2.215z"/></g><defs><clipPath id="clip0"><path fill="#fff" transform="translate(.5)" d="M0 0H32V32H0z"/></clipPath></defs></svg>