<svg width="48" height="44" viewBox="0 0 48 44" fill="none" xmlns="http://www.w3.org/2000/svg">
<path d="M48 20.0382L46.0606 4.6242L40.8658 5.6051L40.2424 0L29.8528 1.33121L30.4762 6.58599L25.6277 7.21656L26.2511 12.121L21.0563 13.1019L20.4329 7.84713L14.8918 8.54777L14.6147 3.29299L4.22511 4.27389L4.84848 9.80892L0 10.5096L1.59307 25.5732L6.78788 25.293L7.48052 30.5478L12.6753 29.8471L13.2987 34.7516L18.1472 34.121L18.8398 39.3758L24.0346 39.0255L25.0043 44L29.8528 43.2994L29.1602 38.0446L34.355 37.7643L33.7316 32.1592L38.5801 31.8089L37.9567 26.5541L43.4978 25.9236L42.5281 20.6688L48 20.0382Z" fill="#FA8501"/>
</svg>
