<svg fill="none" height="76" width="131" xmlns="http://www.w3.org/2000/svg" xmlns:xlink="http://www.w3.org/1999/xlink"><clipPath id="a"><path d="m0 0h22v36h-22z" transform="translate(69.5 40)"/></clipPath><path d="m.5 14.604 10.465 7.302-4.115 12.46 1.83 1.634 10.82-7.71 10.82 7.71 1.83-1.634-4.115-12.46 10.465-7.302-.711-2.298-13.056.154-4.115-12.46h-2.236l-4.115 12.46-13.056-.154zm46 0 10.465 7.302-4.115 12.46 1.83 1.634 10.82-7.71 10.82 7.71 1.83-1.634-4.115-12.46 10.465-7.302-.711-2.298-13.056.154-4.115-12.46h-2.236l-4.115 12.46-13.056-.154zm-23 40 10.465 7.302-4.115 12.46 1.83 1.634 10.82-7.71 10.82 7.71 1.83-1.634-4.115-12.46 10.465-7.302-.711-2.298-13.056.154-4.115-12.46h-2.236l-4.115 12.46-13.056-.154zm69-40 10.465 7.302-4.115 12.46 1.83 1.634 10.821-7.71 10.82 7.71 1.829-1.634-4.115-12.46 10.465-7.302-.711-2.298-13.056.154-4.115-12.46h-2.236l-4.115 12.46-13.056-.154zm-23 40 10.465 7.302-4.115 12.46 1.83 1.634 10.82-7.71 10.82 7.71 1.83-1.634-4.115-12.46 10.465-7.302-.711-2.298-13.056.154-4.115-12.46h-2.236l-4.115 12.46-13.056-.154zm6.858 1.226.203-.664 8.992.766 2.591-8.477h.712l2.59 8.477 8.993-.766.203.664-7.519 5.004 3.404 8.783-.56.408-7.467-5.923-7.468 5.923-.559-.408 3.404-8.783z" fill="#f80"/><g clip-path="url(#a)"><path d="m69.5 54.604 10.465 7.302-4.115 12.46 1.83 1.634 10.82-7.71 10.82 7.71 1.83-1.634-4.115-12.46 10.465-7.302-.711-2.298-13.056.154-4.115-12.46h-2.236l-4.115 12.46-13.056-.154z" fill="#f80"/></g></svg>