<svg width="159" height="61" viewBox="0 0 159 61" fill="none" xmlns="http://www.w3.org/2000/svg">
<path d="M0.5 11.7016L8.76203 17.3811L5.51337 27.0719L6.95722 28.3428L15.5 22.3456L24.0428 28.3428L25.4866 27.0719L22.238 17.3811L30.5 11.7016L29.9385 9.9144L19.631 10.0336L16.3824 0.342773H14.6176L11.369 10.0336L1.0615 9.9144L0.5 11.7016Z" fill="#FF8800"/>
<path d="M32.5 11.7016L40.762 17.3811L37.5134 27.0719L38.9572 28.3428L47.5 22.3456L56.0428 28.3428L57.4866 27.0719L54.238 17.3811L62.5 11.7016L61.9385 9.9144L51.631 10.0336L48.3824 0.342773H46.6176L43.369 10.0336L33.0615 9.9144L32.5 11.7016Z" fill="#FF8800"/>
<path d="M64.5 11.7016L72.762 17.3811L69.5134 27.0719L70.9572 28.3428L79.5 22.3456L88.0428 28.3428L89.4866 27.0719L86.238 17.3811L94.5 11.7016L93.9385 9.9144L83.631 10.0336L80.3824 0.342773H78.6176L75.369 10.0336L65.0615 9.9144L64.5 11.7016Z" fill="#FF8800"/>
<path d="M96.5 11.7016L104.762 17.3811L101.513 27.0719L102.957 28.3428L111.5 22.3456L120.043 28.3428L121.487 27.0719L118.238 17.3811L126.5 11.7016L125.938 9.9144L115.631 10.0336L112.382 0.342773H110.618L107.369 10.0336L97.0615 9.9144L96.5 11.7016Z" fill="#FF8800"/>
<path d="M128.5 11.7016L136.762 17.3811L133.513 27.0719L134.957 28.3428L143.5 22.3456L152.043 28.3428L153.487 27.0719L150.238 17.3811L158.5 11.7016L157.938 9.9144L147.631 10.0336L144.382 0.342773H142.618L139.369 10.0336L129.061 9.9144L128.5 11.7016Z" fill="#FF8800"/>
<path d="M0.5 43.7016L8.76203 49.3811L5.51337 59.0719L6.95722 60.3428L15.5 54.3456L24.0428 60.3428L25.4866 59.0719L22.238 49.3811L30.5 43.7016L29.9385 41.9144L19.631 42.0336L16.3824 32.3428H14.6176L11.369 42.0336L1.0615 41.9144L0.5 43.7016Z" fill="#FF8800"/>
<path d="M32.5 43.7016L40.762 49.3811L37.5134 59.0719L38.9572 60.3428L47.5 54.3456L56.0428 60.3428L57.4866 59.0719L54.238 49.3811L62.5 43.7016L61.9385 41.9144L51.631 42.0336L48.3824 32.3428H46.6176L43.369 42.0336L33.0615 41.9144L32.5 43.7016Z" fill="#FF8800"/>
<path d="M64.5 43.7016L72.762 49.3811L69.5134 59.0719L70.9572 60.3428L79.5 54.3456L88.0428 60.3428L89.4866 59.0719L86.238 49.3811L94.5 43.7016L93.9385 41.9144L83.631 42.0336L80.3824 32.3428H78.6176L75.369 42.0336L65.0615 41.9144L64.5 43.7016Z" fill="#FF8800"/>
<path d="M96.5 43.7016L104.762 49.3811L101.513 59.0718L102.957 60.3428L111.5 54.3456L120.043 60.3428L121.487 59.0718L118.238 49.3811L126.5 43.7016L125.939 41.9144L115.631 42.0336L112.382 32.3428H110.618L107.369 42.0336L97.0615 41.9144L96.5 43.7016ZM101.914 44.6548L102.075 44.1385L109.174 44.7343L111.219 38.1414H111.781L113.826 44.7343L120.925 44.1385L121.086 44.6548L115.15 48.547L117.837 55.3782L117.396 55.696L111.5 51.0889L105.604 55.696L105.163 55.3782L107.85 48.547L101.914 44.6548Z" fill="#FF8800"/>
<g clip-path="url(#clip0_1375_24346)">
<path d="M96.5 43.7016L104.762 49.3811L101.513 59.0719L102.957 60.3428L111.5 54.3456L120.043 60.3428L121.487 59.0719L118.238 49.3811L126.5 43.7016L125.938 41.9144L115.631 42.0336L112.382 32.3428H110.618L107.369 42.0336L97.0615 41.9144L96.5 43.7016Z" fill="#FF8800"/>
</g>
<path d="M128.5 43.7016L136.762 49.3811L133.513 59.0718L134.957 60.3428L143.5 54.3456L152.043 60.3428L153.487 59.0718L150.238 49.3811L158.5 43.7016L157.939 41.9144L147.631 42.0336L144.382 32.3428H142.618L139.369 42.0336L129.061 41.9144L128.5 43.7016ZM133.914 44.6548L134.075 44.1385L141.174 44.7343L143.219 38.1414H143.781L145.826 44.7343L152.925 44.1385L153.086 44.6548L147.15 48.547L149.837 55.3782L149.396 55.696L143.5 51.0889L137.604 55.696L137.163 55.3782L139.85 48.547L133.914 44.6548Z" fill="#FF8800"/>
<defs>
<clipPath id="clip0_1375_24346">
<rect width="17.3684" height="28" fill="white" transform="translate(96.5 32.3428)"/>
</clipPath>
</defs>
</svg>
