<svg fill="none" height="32" width="141" xmlns="http://www.w3.org/2000/svg"><g fill="#000"><path d="m11.418 4.098a.898.898 0 0 1 .251.174l4.062 4.064a.856.856 0 0 1 .254.605v18.721a.285.285 0 0 1 -.286.286.308.308 0 0 1 -.2-.083l-3.833-3.827a.856.856 0 0 1 -.248-.606zm11.166.185a.833.833 0 0 1 .248-.185v19.331a.855.855 0 0 1 -.25.609l-3.831 3.827a.285.285 0 0 1 -.485-.194v-18.735a.857.857 0 0 1 .248-.594l4.064-4.059zm7.388 14.866-.286-.286v-3.996h-3.879a.285.285 0 0 0 -.2.083l-2.771 2.771 8.88 8.883c.16.158.377.246.602.245h4.664a.285.285 0 0 0 .285-.285.308.308 0 0 0 -.083-.2z"/><path d="m23.187 4.02a.856.856 0 0 0 -.602.262l-4.07 4.053a.856.856 0 0 0 -.171.246h11.34v10.275l.285.285 4.027-4.013c.161-.16.251-.378.252-.605v-5.58a.856.856 0 0 0 -.252-.605l-4.064-4.056a.856.856 0 0 0 -.605-.251zm-11.522.262a.856.856 0 0 0 -.605-.262h-10.657a.285.285 0 0 0 -.2.49l3.825 3.825c.16.16.378.251.605.251h10.78a.571.571 0 0 1 .571.571v-.214a.856.856 0 0 0 -.251-.605z"/><path d="m22.578 4.282a.856.856 0 0 1 .608-.262h6.14c.227 0 .444.09.605.25l4.064 4.065a.856.856 0 0 1 .252.608v.214a.571.571 0 0 0 -.571-.57h-14.84a.571.571 0 0 0 -.57.57v-.214c0-.227.09-.445.25-.605zm11.676 10.011a.57.57 0 0 1 -.57.57h-7.65a.143.143 0 0 0 -.1.246l4.04 4.036 4.03-4.019c.16-.16.25-.378.25-.605zm39.909 1.694c-1.619-.4-2.052-.719-2.052-1.287s.508-.945 1.564-.945a7.45 7.45 0 0 1 3.334.908l.342-2.072a9.231 9.231 0 0 0 -3.656-.72c-2.43 0-3.862 1.25-3.862 2.992 0 1.872 1.056 2.591 3.6 3.214 1.769.416 2.26.702 2.26 1.458 0 .68-.68 1.096-1.867 1.096a7.42 7.42 0 0 1 -3.825-1.196l-.357 2.087a9.62 9.62 0 0 0 4.096.982c2.755 0 4.228-1.19 4.228-3.197 0-1.93-1.11-2.649-3.805-3.32zm21.7-3.247c0-2.637-1.903-4.138-5.049-4.138h-4.33v13.7h2.57v-5.295h1.24l3.846 5.423 2.703-.5-3.937-5.374c1.79-.57 2.957-1.818 2.957-3.816zm-5.383 2.34h-1.455v-4.352h1.6c1.753 0 2.675.768 2.675 2.14 0 1.428-1.073 2.213-2.82 2.213zm-24.475 3.914c-.81.793-1.684 1.318-2.569 1.318-1.016 0-1.427-.619-1.427-1.524v-6.773h-2.497v7.421c0 1.901 1.056 3.051 3.07 3.051 1.428 0 2.57-.73 3.566-1.635l.357 1.415h1.998v-10.275h-2.498zm19.192-4.983-.428-1.998h-2.175v-3.568l-2.432.431v3.14h-1.67v1.998h1.673v5.423c0 2.283 1.358 3.014 3.39 3.014.551.012 1.101-.043 1.639-.163l-.303-2.052a4.175 4.175 0 0 1 -.884.074c-1.02 0-1.413-.45-1.413-1.278v-5.02h2.603zm-30.63.144-.48-2.138h-1.853v10.275h2.426v-5.854a4.8 4.8 0 0 1 3.711-2.14l-.57-2.427c-1.57.285-2.518 1.113-3.235 2.284zm74.231 4.839c-.81.793-1.684 1.318-2.569 1.318-1.016 0-1.427-.619-1.427-1.524v-6.773h-2.497v7.421c0 1.901 1.056 3.051 3.071 3.051 1.413 0 2.569-.73 3.565-1.635l.357 1.415h1.998v-10.275h-2.498zm-9.207-8.616a1.427 1.427 0 1 0 0-2.855 1.427 1.427 0 0 0 0 2.855zm17.489 5.608c-1.619-.399-2.052-.719-2.052-1.287s.508-.944 1.564-.944a7.443 7.443 0 0 1 3.333.907l.34-2.063a9.227 9.227 0 0 0 -3.656-.72c-2.429 0-3.862 1.25-3.862 2.992 0 1.872 1.056 2.591 3.599 3.213 1.77.417 2.261.703 2.261 1.459 0 .68-.68 1.096-1.867 1.096a7.583 7.583 0 0 1 -3.862-1.19l-.319 2.08a9.581 9.581 0 0 0 4.087.982c2.751 0 4.238-1.19 4.238-3.196 0-1.938-1.11-2.658-3.804-3.329zm-16.252-3.974h-2.469v10.275h2.469zm-6.414.388a7.704 7.704 0 0 0 -2.503-.394c-2.489 0-4.692 1.695-4.692 5.48 0 3.425 1.809 5.012 4.05 5.012 1.49 0 2.526-.753 3.297-1.621l.217 1.413h2.1v-15.27l-2.469.428zm0 6.462c-.733.885-1.524 1.45-2.543 1.45-1.241 0-2.166-.96-2.166-2.974 0-2.26 1.076-3.354 2.543-3.354a4.726 4.726 0 0 1 2.166.45zm-12.27-6.952a10.828 10.828 0 0 0 -4.181.828l.302 1.96a9.42 9.42 0 0 1 3.579-.81c1.185 0 1.884.414 1.884 1.524v.323c-4.373.414-6.482 1.467-6.482 3.936 0 1.77 1.225 2.826 3.051 2.826a4.966 4.966 0 0 0 3.58-1.527l.228 1.318h2.072v-6.987c0-2.412-1.319-3.39-4.033-3.39zm1.584 7.573a3.995 3.995 0 0 1 -2.637 1.141c-.857 0-1.396-.47-1.396-1.207 0-.98.774-1.864 4.033-2.224z"/><path d="m53.23 8.59h-12.129v2.283h4.566v11.417h2.57v-11.417h5.563z"/></g></svg>