<svg width="720" height="150" viewBox="0 0 720 150" fill="none" xmlns="http://www.w3.org/2000/svg">
<g clip-path="url(#clip0_1376_20153)">
<path d="M55.6876 150C39.8453 150 27.8341 141.829 19.9913 125.712L19.3925 124.483L41.7114 116.928L42.15 117.943C45.0552 124.656 51.1789 127.048 55.9404 127.048C59.6725 127.048 62.6125 125.913 64.6776 123.675C67.0555 121.097 68.217 117.058 68.0677 111.93C54.131 116.566 40.0564 111.291 31.0195 97.9089L0 49.8642L25.773 41.2957L51.9864 82.0294C56.9412 89.6639 59.9316 92.849 66.7947 90.1868L63.8644 29.6188L89.145 21.3096L92.7765 106.114C93.4256 119.603 89.7747 130.94 82.2195 138.892C75.5108 145.951 65.8408 150 55.6876 150ZM22.7575 125.882C30.1691 140.292 41.2424 147.596 55.6876 147.596C65.1877 147.596 74.2263 143.818 80.4833 137.234C87.5764 129.77 90.9974 119.047 90.3814 106.225L86.8849 24.584L66.3469 31.335L69.2715 91.7524L68.5087 92.0816C59.1647 96.1165 55.1037 91.2387 49.9739 83.3373L24.7642 44.1652L3.69951 51.1681L33.0205 96.5775C41.7154 109.454 55.4097 114.274 68.75 109.127L70.2506 108.547L70.3764 110.155C70.8865 116.722 69.5243 121.96 66.4413 125.304C63.9399 128.016 60.3101 129.448 55.9444 129.448C50.6654 129.448 43.9446 126.916 40.4212 119.899L22.7598 125.877L22.7575 125.882ZM648.835 147.108L633.548 105.82C625.125 83.126 623.409 74.6176 622.906 65.131V65.0675C622.906 36.6354 643.322 16 671.453 16C699.584 16 720 36.6349 720 65.0675C720 78.3369 715.185 90.6907 706.446 99.8496C697.811 108.896 686.333 113.877 674.124 113.877C669.897 113.877 665.471 113.141 661.788 111.862L671.859 139.599L648.835 147.106V147.108ZM625.308 65.0366C625.794 74.2614 627.492 82.6066 635.796 104.981L650.287 144.107L668.759 138.084L657.625 107.417L660.255 108.652C664.013 110.419 669.2 111.475 674.129 111.475C685.676 111.475 696.541 106.756 704.714 98.1895C713.023 89.4801 717.604 77.7173 717.604 65.0692C717.604 38.0315 698.194 18.408 671.453 18.408C658.431 18.408 646.645 23.0751 638.272 31.5503C629.917 40.0095 625.313 51.9023 625.308 65.0383V65.0366ZM567.978 113.879C539.775 113.879 519.304 93.3506 519.304 65.0675C519.304 36.7843 539.775 16 567.978 16C580.627 16 591.898 19.9908 600.568 27.544C609.232 35.0916 614.659 45.6295 616.26 58.0216L616.386 59.0037L615.448 59.3158L549.566 81.2969C553.252 86.7056 559.596 89.7745 567.215 89.7745C577.047 89.7745 588.153 84.4431 590.354 74.2574L590.497 73.5908L616.947 64.6569L616.907 66.3731C616.255 93.9004 595.673 113.879 567.978 113.879ZM567.978 18.4063C541.163 18.4063 521.703 38.0298 521.703 65.0675C521.703 92.1051 541.165 111.473 567.978 111.473C594.792 111.473 613.018 93.3134 614.442 68.039L592.539 75.437C589.742 86.4307 577.79 92.1784 567.215 92.1784C558.141 92.1784 550.663 88.1899 546.7 81.2334L545.973 79.9587L613.744 57.3459C612.069 45.9725 606.979 36.3113 598.995 29.3548C590.766 22.1892 580.043 18.4023 567.978 18.4023V18.4063ZM463.611 113.879C435.407 113.879 414.937 93.3506 414.937 65.0675C414.937 36.7843 435.407 16 463.611 16C476.261 16 487.529 19.9908 496.201 27.544C504.866 35.0916 510.292 45.6295 511.892 58.0216L512.019 59.0037L511.083 59.3158L445.2 81.2969C448.885 86.7056 455.231 89.7745 462.85 89.7745C472.68 89.7745 483.786 84.4431 485.987 74.2574L486.133 73.5908L512.582 64.6569L512.541 66.3731C511.888 93.9004 491.309 113.879 463.612 113.879H463.611ZM463.611 18.4063C436.796 18.4063 417.334 38.0298 417.334 65.0675C417.334 92.1051 436.796 111.473 463.611 111.473C490.425 111.473 508.651 93.3134 510.072 68.039L488.17 75.437C485.373 86.4307 473.425 92.1784 462.847 92.1784C453.774 92.1784 446.296 88.1899 442.333 81.2334L441.606 79.9587L509.379 57.3459C507.702 45.9725 502.614 36.3113 494.628 29.3548C486.401 22.1892 475.674 18.4023 463.611 18.4023V18.4063ZM359.244 113.879C331.04 113.879 310.57 93.3506 310.57 65.0675C310.57 36.7843 331.04 16 359.244 16C371.895 16 383.162 19.9908 391.834 27.544C400.5 35.0916 405.926 45.6295 407.525 58.0216L407.653 59.0037L406.716 59.3158L340.833 81.2969C344.518 86.7056 350.864 89.7745 358.483 89.7745C368.313 89.7745 379.417 84.4431 381.621 74.2574L381.766 73.5908L408.215 64.6569L408.174 66.3731C407.521 93.9004 386.943 113.879 359.246 113.879H359.244ZM359.244 18.4063C332.43 18.4063 312.97 38.0298 312.97 65.0675C312.97 92.1051 332.431 111.473 359.244 111.473C386.056 111.473 404.284 93.3134 405.705 68.039L383.803 75.437C381.006 86.4307 369.059 92.1784 358.48 92.1784C349.408 92.1784 341.93 88.1899 337.966 81.2334L337.24 79.9587L405.012 57.3459C403.335 45.9725 398.247 36.3113 390.261 29.3548C382.034 22.1892 371.307 18.4023 359.244 18.4023V18.4063ZM254.877 113.879C226.674 113.879 206.203 93.3506 206.203 65.0675C206.203 36.7843 226.672 16 254.877 16C267.528 16 278.796 19.9908 287.467 27.544C296.133 35.0916 301.559 45.6295 303.158 58.0216L303.286 59.0037L302.349 59.3158L236.465 81.2969C240.151 86.7056 246.495 89.7745 254.114 89.7745C263.944 89.7745 275.05 84.4431 277.252 74.2574L277.397 73.5908L303.846 64.6569L303.805 66.3731C303.153 93.9004 282.574 113.879 254.877 113.879ZM254.877 18.4063C228.063 18.4063 208.603 38.0298 208.603 65.0675C208.603 92.1051 228.064 111.473 254.877 111.473C281.689 111.473 299.917 93.3134 301.339 68.039L279.437 75.437C276.64 86.4307 264.692 92.1784 254.114 92.1784C245.04 92.1784 237.563 88.1899 233.599 81.2334L232.873 79.9587L300.645 57.3459C298.968 45.9725 293.88 36.3113 285.894 29.3548C277.667 22.1892 266.94 18.4023 254.877 18.4023V18.4063ZM150.51 113.877C122.307 113.877 101.836 93.3484 101.836 65.0652C101.836 36.782 122.305 16 150.51 16C163.161 16 174.428 19.9908 183.1 27.544C191.765 35.0916 197.192 45.6295 198.791 58.0216L198.919 59.0037L197.982 59.3158L132.099 81.2969C135.784 86.7056 142.128 89.7745 149.749 89.7745C159.579 89.7745 170.683 84.4431 172.887 74.2574L173.032 73.5908L199.481 64.6569L199.441 66.3731C198.787 93.9004 178.211 113.879 150.514 113.879L150.51 113.877ZM150.51 18.404C123.696 18.404 104.234 38.0281 104.234 65.0652C104.234 92.1028 123.696 111.471 150.51 111.471C177.324 111.471 195.55 93.3117 196.972 68.0372L175.07 75.4353C172.273 86.429 160.325 92.1767 149.747 92.1767C140.673 92.1767 133.196 88.1876 129.232 81.2311L128.505 79.9569L196.278 57.3436C194.601 45.9708 189.513 36.3096 181.527 29.353C173.3 22.1875 162.574 18.4 150.51 18.4V18.404ZM671.201 91.4134C656.492 91.4134 645.815 80.4408 645.815 65.3212C645.815 50.2015 656.733 39.1013 671.201 39.1013C685.67 39.1013 696.965 50.3739 696.965 65.3212C696.965 80.2685 686.127 91.4134 671.201 91.4134ZM671.201 41.507C657.882 41.507 648.217 51.5226 648.217 65.3235C648.217 79.1237 657.882 89.0094 671.201 89.0094C684.515 89.0094 694.563 79.0481 694.563 65.3229C694.563 51.5982 684.52 41.507 671.201 41.507ZM541.959 64.6781V63.0231C541.959 47.7563 553.169 36.6778 568.613 36.6778C573.815 36.6778 583.366 38.1323 588.873 47.8805L589.599 49.1633L541.959 64.6798V64.6781ZM568.613 39.0818C555.128 39.0818 545.191 48.3495 544.407 61.3538L586.014 47.801C581.021 40.2517 573.055 39.0818 568.613 39.0818ZM437.592 64.6781V63.0231C437.592 47.7563 448.802 36.6778 464.246 36.6778C469.449 36.6778 478.998 38.1323 484.508 47.8805L485.233 49.1633L437.592 64.6798V64.6781ZM464.246 39.0818C450.761 39.0818 440.824 48.3495 440.04 61.3538L481.647 47.801C476.651 40.2517 468.689 39.0818 464.246 39.0818ZM333.226 64.6781V63.0231C333.226 47.7563 344.435 36.6778 359.879 36.6778C365.083 36.6778 374.634 38.1323 380.141 47.8805L380.866 49.1633L333.226 64.6798V64.6781ZM359.879 39.0818C346.394 39.0818 336.457 48.3495 335.673 61.3538L377.28 47.801C372.285 40.2517 364.322 39.0818 359.879 39.0818ZM228.858 64.6781V63.0231C228.858 47.7563 240.068 36.6778 255.512 36.6778C260.717 36.6778 270.267 38.1323 275.774 47.8805L276.498 49.1633L228.858 64.6798V64.6781ZM255.512 39.0818C242.027 39.0818 232.09 48.3495 231.306 61.3538L272.913 47.801C267.918 40.2517 259.955 39.0818 255.512 39.0818ZM124.491 64.6781V63.0231C124.491 47.7563 135.701 36.6778 151.146 36.6778C156.348 36.6778 165.9 38.1323 171.407 47.8805L172.131 49.1633L124.491 64.6798V64.6781ZM151.146 39.0818C137.66 39.0818 127.723 48.3495 126.939 61.3538L168.546 47.801C163.551 40.2517 155.589 39.0818 151.146 39.0818Z" fill="black" fill-opacity="0.1"/>
</g>
<defs>
<clipPath id="clip0_1376_20153">
<rect width="720" height="134" fill="white" transform="translate(0 16)"/>
</clipPath>
</defs>
</svg>
