<svg width="96" height="110" viewBox="0 0 96 110" fill="none" xmlns="http://www.w3.org/2000/svg">
<g clip-path="url(#clip0_1376_20177)">
<path d="M0.908203 47.3869C0.908203 66.3429 16.5392 76.4709 37.7062 76.4709H40.9082V96.2939C63.1062 89.9039 80.9082 68.8889 80.9082 47.3869C80.9082 27.6179 64.6802 14.2939 40.9082 14.2939C17.1362 14.2939 0.908203 27.6179 0.908203 47.3869Z" fill="#FFF238"/>
<path d="M60.112 35.628C54.615 35.628 50.687 39.586 50.687 45.083C50.789 46.999 51.169 48.713 52.79 53.051L55.755 60.993L59.885 59.657L57.781 53.907C58.592 54.286 59.681 54.487 60.644 54.487C65.484 54.487 69.537 50.428 69.537 45.083C69.537 39.737 65.534 35.628 60.112 35.628ZM60.062 50.05C57.3 50.05 55.248 48.008 55.248 45.134C55.248 42.259 57.3 40.192 60.062 40.192C62.823 40.192 64.952 42.285 64.952 45.134C64.952 47.983 62.848 50.05 60.062 50.05ZM26.924 36.762L22.364 38.25L22.946 50.201C21.299 50.907 20.59 50.151 19.551 48.562L14.433 40.67L9.771 42.208L15.776 51.437C17.423 53.857 20.21 55.143 23.174 54.009C23.351 56.278 22.364 57.564 20.539 57.564C19.399 57.564 18.158 56.959 17.575 55.622L13.597 56.959C15.675 61.195 18.817 61.624 20.488 61.624C24.137 61.624 27.911 58.951 27.633 53.202L26.924 36.762ZM39.214 50.201C37.669 50.201 36.148 49.571 35.338 48.159L48.74 43.72C48.107 38.854 44.383 35.626 39.366 35.626C33.894 35.626 29.916 39.585 29.916 45.082C29.916 50.578 33.894 54.487 39.366 54.487C44.839 54.487 48.74 50.629 48.867 45.334L44.053 46.947C43.597 49.04 41.317 50.201 39.214 50.201ZM39.493 39.711C40.963 39.711 42.457 40.291 43.319 41.805L34.426 44.679C34.426 41.754 36.63 39.711 39.493 39.711ZM58.487 16.806C59.962 19.954 59.152 26.291 55.277 28.044C53.647 28.777 52.301 28.21 51.491 26.483C49.791 22.855 50.846 13.785 53.282 9.312L54.144 9.847C52.921 12.097 51.994 16.034 51.736 19.59C52.354 17.503 53.49 16.017 54.956 15.337C56.441 14.647 57.731 15.193 58.487 16.806ZM57.585 17.388C57.063 16.275 56.15 15.88 55.185 16.328C53.605 17.062 51.543 20.03 51.823 23.734C51.943 24.589 52.123 25.324 52.393 25.9C52.969 27.129 53.91 27.533 54.99 27.032C58.134 25.572 58.773 19.922 57.585 17.388ZM73.181 8.066C73.125 13.656 70.261 19.52 66.383 21.321C64.454 22.216 62.891 21.587 61.955 19.591C60.398 16.27 61.518 10.443 64.488 9.063C65.685 8.508 66.846 8.881 67.385 10.033C68.573 12.566 66.717 17.425 63.577 20.145C64.188 20.797 64.948 20.865 65.951 20.399C69.404 18.796 72.319 13.141 72.411 7.979L73.181 8.066ZM62.966 19.19L63.029 19.324C65.703 16.914 67.403 12.524 66.441 10.47C66.153 9.856 65.596 9.67 64.921 9.984C62.394 11.158 61.643 16.368 62.966 19.19Z" fill="black"/>
<path d="M79.1641 15.9229L79.1211 16.8309C77.0481 16.7189 75.2691 15.2309 73.9641 12.4459C73.3971 11.2369 72.9671 9.91788 72.5871 8.45788L70.5841 9.64488L70.1211 8.80788L72.3961 7.44788C71.7901 4.85388 71.5331 2.05088 71.4421 -0.548121L72.3581 -0.599121C72.4811 2.21888 72.7551 4.75688 73.1901 6.93888L78.4951 3.77388L78.9571 4.61088L73.4201 7.93088C73.8151 9.52288 74.2901 10.9389 74.8131 12.0519C75.9551 14.4899 77.4151 15.7989 79.1631 15.9219L79.1641 15.9229ZM83.5821 0.499879C85.0871 -0.199121 86.3351 -0.241121 87.4621 0.309879L91.4781 10.2269L90.5521 10.6569L87.5881 3.38388C87.0811 7.31388 85.2881 10.9509 83.4071 11.8479C82.2571 12.4049 81.1891 11.7789 80.5741 10.2649C79.0911 6.65188 80.4961 1.93288 83.5821 0.499879ZM83.1661 10.8849C85.1341 9.97088 86.9911 4.01288 86.8761 1.21388C86.0211 0.793879 84.9031 0.961879 83.9381 1.40888C81.4111 2.58288 80.2601 6.73988 81.4981 9.88188C81.8821 10.8489 82.4911 11.1979 83.1661 10.8839V10.8849Z" fill="black"/>
</g>
<defs>
<clipPath id="clip0_1376_20177">
<rect width="96" height="110" fill="white"/>
</clipPath>
</defs>
</svg>
